<?xml version="1.0" encoding="UTF-8" standalone="no"?>
<!-- Created with Inkscape (http://www.inkscape.org/) -->
<svg
   xmlns:dc="http://purl.org/dc/elements/1.1/"
   xmlns:cc="http://web.resource.org/cc/"
   xmlns:rdf="http://www.w3.org/1999/02/22-rdf-syntax-ns#"
   xmlns:svg="http://www.w3.org/2000/svg"
   xmlns="http://www.w3.org/2000/svg"
   xmlns:sodipodi="http://sodipodi.sourceforge.net/DTD/sodipodi-0.dtd"
   xmlns:inkscape="http://www.inkscape.org/namespaces/inkscape"
   width="547.08661"
   height="547.08661"
   id="svg33698"
   sodipodi:version="0.32"
   inkscape:version="0.45.1"
   sodipodi:docbase="C:\Users\kiwi!\Pictures"
   sodipodi:docname="ISSF_50_m_Rifle.svg"
   version="1.0"
   inkscape:export-filename="C:\Users\kiwi!\Pictures\stuff\ISSF 50 m Rifle.png"
   inkscape:export-xdpi="300"
   inkscape:export-ydpi="300"
   inkscape:output_extension="org.inkscape.output.svg.inkscape">
  <defs
     id="defs33700" />
  <sodipodi:namedview
     id="base"
     pagecolor="#ffffff"
     bordercolor="#666666"
     borderopacity="1.0"
     inkscape:pageopacity="0.0"
     inkscape:pageshadow="2"
     inkscape:zoom="1.5792746"
     inkscape:cx="248.56646"
     inkscape:cy="469.17372"
     inkscape:document-units="mm"
     inkscape:current-layer="g1945"
     showgrid="true"
     inkscape:window-width="853"
     inkscape:window-height="628"
     inkscape:window-x="67"
     inkscape:window-y="16" />
  <metadata
     id="metadata33703">
    <rdf:RDF>
      <cc:Work
         rdf:about="">
        <dc:format>image/svg+xml</dc:format>
        <dc:type
           rdf:resource="http://purl.org/dc/dcmitype/StillImage" />
      </cc:Work>
    </rdf:RDF>
  </metadata>
  <g
     inkscape:label="Layer 1"
     inkscape:groupmode="layer"
     id="layer1"
     transform="translate(2.555704,-505.8259)">
    <g
       id="g1945">
      <path
         transform="matrix(3.986865,0,0,3.986865,-907.131,-334.9596)"
         style="writing-mode:tb-rl;fill:#ffffff;fill-opacity:1;fill-rule:evenodd;stroke:#000000;stroke-width:0.22225945;stroke-linecap:butt;stroke-linejoin:miter;stroke-miterlimit:4;stroke-opacity:1"
         d="M 364,279.5 C 364,317.312 333.312,348 295.5,348 C 257.688,348 227,317.312 227,279.5 C 227,241.688 257.688,211 295.5,211 C 333.312,211 364,241.688 364,279.5 z "
         id="path3633" />
      <path
         transform="matrix(4.148369,0,0,3.947641,-2238.776,321.4428)"
         style="fill:#ffffff;fill-opacity:1;stroke:#000000;stroke-width:0.21897928;stroke-miterlimit:4;stroke-opacity:1"
         d="M 664,116 C 664,150.224 637.568,178 605,178 C 572.432,178 546,150.224 546,116 C 546,81.776 572.432,54 605,54 C 637.568,54 664,81.776 664,116 z "
         id="path11303" />
      <path
         transform="matrix(3.637026,0,0,3.462448,-1716.647,576.816)"
         style="fill:#ffffff;fill-opacity:1;stroke:#000000;stroke-width:0.25214553;stroke-miterlimit:4;stroke-opacity:1"
         d="M 606,58.5 C 606,93 579.344,121 546.5,121 C 513.656,121 487,93 487,58.5 C 487,24 513.656,-4 546.5,-4 C 579.344,-4 606,24 606,58.5 z "
         id="path12190" />
      <path
         transform="matrix(2.052926,0,0,2.164498,550.1855,560.7549)"
         style="fill:#000000;fill-opacity:1;stroke:none;stroke-width:1.77165353;stroke-miterlimit:4;stroke-opacity:1"
         d="M -39,101 C -39,151.784 -82.456,193 -136,193 C -189.544,193 -233,151.784 -233,101 C -233,50.216 -189.544,9 -136,9 C -82.456,9 -39,50.216 -39,101 z "
         id="path14847" />
      <path
         transform="matrix(2.474487,0,0,2.365547,543.1812,416.2577)"
         style="fill:#000000;fill-opacity:1;stroke:#ffffff;stroke-width:0.3661322;stroke-miterlimit:4;stroke-opacity:1"
         d="M -34,153.5 C -34,197.384 -68.048,233 -110,233 C -151.952,233 -186,197.384 -186,153.5 C -186,109.616 -151.952,74 -110,74 C -68.048,74 -34,109.616 -34,153.5 z "
         id="path15734" />
      <path
         transform="matrix(1.755105,0,0,1.708177,476.3349,553.0357)"
         style="fill:#000000;fill-opacity:1;stroke:#ffffff;stroke-width:0.51160431;stroke-miterlimit:4;stroke-opacity:1"
         d="M -26,132.5 C -26,184.112 -66.768,226 -117,226 C -167.232,226 -208,184.112 -208,132.5 C -208,80.888 -167.232,39 -117,39 C -66.768,39 -26,80.888 -26,132.5 z "
         id="path17506" />
      <path
         transform="matrix(1.157428,0,0,1.085687,395.4111,600.2308)"
         style="fill:#000000;fill-opacity:1;stroke:#ffffff;stroke-width:0.79023147;stroke-miterlimit:4;stroke-opacity:1"
         d="M 6,165 C 6,231.792 -44.848,286 -107.5,286 C -170.152,286 -221,231.792 -221,165 C -221,98.208 -170.152,44 -107.5,44 C -44.848,44 6,98.208 6,165 z "
         id="path20163" />
      <path
         transform="matrix(1.212019,0,0,1.212019,421.278,610.8985)"
         style="fill:#000000;fill-opacity:1;stroke:#ffffff;stroke-width:0.73088378;stroke-miterlimit:4;stroke-opacity:1"
         d="M -39,139 C -39,185.92 -77.08,224 -124,224 C -170.92,224 -209,185.92 -209,139 C -209,92.08 -170.92,54 -124,54 C -77.08,54 -39,92.08 -39,139 z "
         id="path23705" />
      <path
         transform="matrix(1.114555,0,0,1.114555,32.47284,538.6253)"
         style="fill:#000000;fill-opacity:1;stroke:#ffffff;stroke-width:0.79481453;stroke-miterlimit:4;stroke-opacity:1"
         d="M 281,216 C 281,252.984 250.984,283 214,283 C 177.016,283 147,252.984 147,216 C 147,179.016 177.016,149 214,149 C 250.984,149 281,179.016 281,216 z "
         id="path25477" />
      <path
         transform="matrix(0.691486,0,0,0.691486,123.0096,630.0082)"
         style="fill:#000000;fill-opacity:1;stroke:#ffffff;stroke-width:1.27868021;stroke-miterlimit:4;stroke-opacity:1"
         d="M 281,216 C 281,252.984 250.984,283 214,283 C 177.016,283 147,252.984 147,216 C 147,179.016 177.016,149 214,149 C 250.984,149 281,179.016 281,216 z "
         id="path25479" />
      <path
         transform="matrix(0.268394,0,0,0.268394,213.5513,721.3961)"
         style="fill:#000000;fill-opacity:1;stroke:#ffffff;stroke-width:3.29961109;stroke-miterlimit:4;stroke-opacity:1"
         d="M 281,216 C 281,252.984 250.984,283 214,283 C 177.016,283 147,252.984 147,216 C 147,179.016 177.016,149 214,149 C 250.984,149 281,179.016 281,216 z "
         id="path25481" />
      <path
         transform="matrix(0.630712,0,0,0.570645,410.5796,719.6337)"
         style="fill:#000000;fill-opacity:1;stroke:#ffffff;stroke-width:1.28225243;stroke-miterlimit:4;stroke-opacity:1"
         d="M -207.88939,104.68063 C -207.88939,112.87742 -213.90828,119.52988 -221.32442,119.52988 C -228.74055,119.52988 -234.75945,112.87742 -234.75945,104.68063 C -234.75945,96.483852 -228.74055,89.831391 -221.32442,89.831391 C -213.90828,89.831391 -207.88939,96.483852 -207.88939,104.68063 z "
         id="path29908" />
      <path
         style="font-size:12px;font-style:normal;font-weight:normal;writing-mode:lr-tb;fill:#000000;fill-opacity:1;stroke:none;stroke-width:1px;stroke-linecap:butt;stroke-linejoin:miter;stroke-opacity:1;font-family:Consolas"
         d="M 14.700822,783.76196 L 9.890275,783.76196 L 9.890275,782.81274 L 11.859025,782.81274 L 11.859025,777.2229 L 10.025041,778.21899 L 9.6500406,777.35181 L 12.087541,776.0686 L 12.989884,776.0686 L 12.989884,782.81274 L 14.700822,782.81274 L 14.700822,783.76196 z "
         id="text30910" />
      <path
         style="font-size:12px;font-style:normal;font-weight:normal;writing-mode:lr-tb;fill:#000000;fill-opacity:1;stroke:none;stroke-width:1px;stroke-linecap:butt;stroke-linejoin:miter;stroke-opacity:1;font-family:Consolas"
         d="M 42.607071,783.79712 L 37.562149,783.79712 L 37.562149,782.88306 L 39.542618,780.91431 C 39.866833,780.594 40.130505,780.31665 40.333633,780.08228 C 40.536755,779.8479 40.694958,779.63404 40.808243,779.44067 C 40.92152,779.24732 40.997692,779.0647 41.036758,778.89282 C 41.075817,778.72095 41.095348,778.53541 41.095352,778.33618 C 41.095348,778.14869 41.069957,777.96998 41.01918,777.80005 C 40.968395,777.63013 40.89027,777.48072 40.784805,777.35181 C 40.679333,777.22291 40.542614,777.12134 40.374649,777.04712 C 40.206677,776.97291 40.005505,776.9358 39.771133,776.93579 C 39.446912,776.9358 39.15199,777.00806 38.886368,777.15259 C 38.620741,777.29713 38.3766,777.48463 38.153946,777.71509 L 37.591446,777.04126 C 37.880507,776.73658 38.213515,776.49244 38.590469,776.30884 C 38.96742,776.12525 39.405896,776.03346 39.905899,776.03345 C 40.245739,776.03346 40.555309,776.08424 40.83461,776.18579 C 41.113902,776.28736 41.355113,776.43385 41.558243,776.62524 C 41.761363,776.81666 41.918589,777.05103 42.029922,777.32837 C 42.141245,777.60572 42.196909,777.91822 42.196915,778.26587 C 42.196909,778.55884 42.157847,778.83033 42.079727,779.08032 C 42.001597,779.33033 41.883433,779.57935 41.725235,779.82739 C 41.567027,780.07544 41.367808,780.33228 41.127579,780.5979 C 40.88734,780.86353 40.603161,781.15454 40.27504,781.47095 L 38.886368,782.82446 L 42.607071,782.82446 L 42.607071,783.79712 z "
         id="text30914" />
      <path
         style="font-size:12px;font-style:normal;font-weight:normal;writing-mode:lr-tb;fill:#000000;fill-opacity:1;stroke:none;stroke-width:1px;stroke-linecap:butt;stroke-linejoin:miter;stroke-opacity:1;font-family:Consolas"
         d="M 67.048862,781.41821 C 67.048857,781.75415 66.980497,782.06958 66.843784,782.3645 C 66.70706,782.65942 66.501982,782.91724 66.22855,783.13794 C 65.955108,783.35864 65.611358,783.53247 65.1973,783.65942 C 64.783234,783.78638 64.300813,783.84985 63.750034,783.84985 C 63.445345,783.84985 63.171907,783.84009 62.929722,783.82056 C 62.687533,783.80103 62.460971,783.77563 62.250034,783.74438 L 62.250034,782.83032 C 62.492221,782.87329 62.74808,782.90649 63.017612,782.92993 C 63.287142,782.95337 63.562532,782.96509 63.843784,782.96509 C 64.226594,782.96509 64.553742,782.93091 64.82523,782.86255 C 65.09671,782.79419 65.31839,782.69556 65.490269,782.56665 C 65.662139,782.43775 65.787139,782.2815 65.865269,782.0979 C 65.943389,781.91431 65.982452,781.70728 65.982456,781.47681 C 65.982452,781.26587 65.935577,781.08228 65.841831,780.92603 C 65.748077,780.76978 65.616241,780.63892 65.446323,780.53345 C 65.276398,780.42798 65.073273,780.34888 64.836948,780.29614 C 64.600617,780.24341 64.341828,780.21704 64.060581,780.21704 L 63.187534,780.21704 L 63.187534,779.37915 L 64.0723,779.37915 C 64.302766,779.37915 64.512726,779.34888 64.702183,779.28833 C 64.891632,779.22779 65.053742,779.14087 65.188511,779.02759 C 65.323272,778.91431 65.426788,778.77466 65.499058,778.60864 C 65.571319,778.44263 65.607452,778.25416 65.607456,778.04321 C 65.607452,777.63306 65.482452,777.33423 65.232456,777.14673 C 64.982453,776.95924 64.615265,776.86549 64.130894,776.86548 C 63.873079,776.86549 63.607454,776.89088 63.334019,776.94165 C 63.060579,776.99244 62.767611,777.06861 62.455112,777.17017 L 62.455112,776.27954 C 62.587924,776.23267 62.729525,776.19068 62.879917,776.15356 C 63.030306,776.11646 63.180697,776.08521 63.331089,776.05981 C 63.481477,776.03443 63.630891,776.0149 63.779331,776.00122 C 63.927766,775.98756 64.070344,775.98072 64.207066,775.98071 C 64.613312,775.98072 64.970734,776.02467 65.279331,776.11255 C 65.587921,776.20045 65.845733,776.32642 66.052769,776.49048 C 66.259795,776.65455 66.416045,776.85377 66.521519,777.08813 C 66.626982,777.32252 66.679716,777.58619 66.679722,777.87915 C 66.679716,778.31666 66.567412,778.68384 66.342808,778.98071 C 66.118194,779.27759 65.810577,779.51392 65.419956,779.6897 C 65.619171,779.72095 65.815459,779.78345 66.008823,779.8772 C 66.202178,779.97095 66.376006,780.09107 66.530308,780.23755 C 66.684599,780.38404 66.809599,780.55689 66.905308,780.7561 C 67.001005,780.95533 67.048857,781.17603 67.048862,781.41821 L 67.048862,781.41821 z "
         id="text30918" />
      <path
         style="font-size:12px;font-style:normal;font-weight:normal;writing-mode:lr-tb;fill:#ffffff;fill-opacity:1;stroke:none;stroke-width:1px;stroke-linecap:butt;stroke-linejoin:miter;stroke-opacity:1;font-family:Consolas"
         d="M 99.520729,782.05103 L 98.214088,782.05103 L 98.214088,783.74438 L 97.17112,783.74438 L 97.17112,782.05103 L 93.485573,782.05103 L 93.485573,781.15454 L 96.749245,776.08618 L 98.214088,776.08618 L 98.214088,781.15454 L 99.520729,781.15454 L 99.520729,782.05103 z M 97.17112,777.07056 L 94.505104,781.15454 L 97.17112,781.15454 L 97.17112,777.07056 z "
         id="text30922" />
      <path
         style="font-size:12px;font-style:normal;font-weight:normal;writing-mode:lr-tb;fill:#ffffff;fill-opacity:1;stroke:none;stroke-width:1px;stroke-linecap:butt;stroke-linejoin:miter;stroke-opacity:1;font-family:Consolas"
         d="M 128.15353,781.24243 C 128.15353,781.62134 128.0715,781.96704 127.90744,782.27954 C 127.74337,782.59204 127.51779,782.8606 127.23068,783.08521 C 126.94357,783.30981 126.6047,783.48462 126.21408,783.60962 C 125.82345,783.73462 125.40158,783.79712 124.94846,783.79712 C 124.83517,783.79712 124.7131,783.79419 124.58224,783.78833 C 124.45138,783.78247 124.3215,783.77466 124.1926,783.76489 C 124.06369,783.75513 123.93771,783.74438 123.81467,783.73267 C 123.69162,783.72095 123.58127,783.70728 123.48361,783.69165 L 123.48361,782.76587 C 123.69455,782.81665 123.93576,782.85376 124.20724,782.8772 C 124.47873,782.90064 124.75314,782.91235 125.03049,782.91235 C 125.34298,782.91235 125.62423,782.87524 125.87424,782.80103 C 126.12423,782.72681 126.33712,782.62036 126.51291,782.48169 C 126.68869,782.34302 126.82345,782.17505 126.91721,781.97778 C 127.01095,781.78052 127.05783,781.55884 127.05783,781.31274 C 127.05783,780.83618 126.88693,780.48951 126.54514,780.27271 C 126.20333,780.05591 125.71212,779.94751 125.0715,779.94751 L 123.61838,779.94751 L 123.61838,776.03345 L 127.74338,776.03345 L 127.74338,776.92407 L 124.57932,776.92407 L 124.57932,779.07446 L 125.24728,779.07446 C 125.61447,779.07447 125.97189,779.10767 126.31955,779.17407 C 126.6672,779.24048 126.97677,779.35669 127.24826,779.52271 C 127.51974,779.68872 127.73849,779.91138 127.90451,780.19067 C 128.07052,780.46997 128.15353,780.82056 128.15353,781.24243 L 128.15353,781.24243 z "
         id="text30926" />
      <path
         style="font-size:12px;font-style:normal;font-weight:normal;writing-mode:lr-tb;fill:#ffffff;fill-opacity:1;stroke:none;stroke-width:1px;stroke-linecap:butt;stroke-linejoin:miter;stroke-opacity:1;font-family:Consolas"
         d="M 157.35042,781.26587 C 157.35041,781.61743 157.28694,781.94751 157.15999,782.2561 C 157.03303,782.5647 156.85237,782.83325 156.618,783.06177 C 156.38362,783.29028 156.10139,783.46997 155.77132,783.60083 C 155.44123,783.73169 155.07502,783.79712 154.67268,783.79712 C 154.25081,783.79712 153.87776,783.72974 153.55354,783.59497 C 153.22932,783.46021 152.95784,783.25317 152.73909,782.97388 C 152.52034,782.69458 152.35432,782.34204 152.24104,781.91626 C 152.12776,781.49048 152.07112,780.98657 152.07112,780.40454 C 152.07112,780.01392 152.09651,779.63501 152.14729,779.26782 C 152.19807,778.90064 152.28206,778.55494 152.39925,778.23071 C 152.51643,777.9065 152.67268,777.60963 152.868,777.34009 C 153.06331,777.07056 153.30647,776.83912 153.59749,776.64575 C 153.8885,776.4524 154.23127,776.30201 154.62581,776.19458 C 155.02034,776.08717 155.47737,776.03345 155.9969,776.03345 L 156.75276,776.03345 L 156.75276,776.92407 L 155.93245,776.92407 C 155.47541,776.92408 155.07893,776.97877 154.743,777.08813 C 154.40706,777.19752 154.12581,777.35181 153.89925,777.55103 C 153.67268,777.75025 153.49885,777.99048 153.37776,778.27173 C 153.25667,778.55298 153.18049,778.86744 153.14925,779.21509 L 153.12581,779.45532 C 153.3719,779.3108 153.65608,779.19458 153.97835,779.10669 C 154.30061,779.0188 154.64924,778.97486 155.02425,778.97485 C 155.41096,778.97486 155.74983,779.0315 156.04085,779.14478 C 156.33186,779.25806 156.57405,779.41529 156.76741,779.61646 C 156.96076,779.81763 157.10627,780.05884 157.20393,780.34009 C 157.30158,780.62134 157.35041,780.92993 157.35042,781.26587 L 157.35042,781.26587 z M 156.28401,781.33032 C 156.28401,781.09595 156.25569,780.88404 156.19905,780.69458 C 156.14241,780.50513 156.05354,780.34497 155.93245,780.21411 C 155.81135,780.08326 155.65803,779.98169 155.47249,779.90942 C 155.28694,779.83716 155.06526,779.80103 154.80745,779.80103 C 154.65901,779.80103 154.50862,779.8147 154.35628,779.84204 C 154.20393,779.86939 154.05452,779.90747 153.90804,779.9563 C 153.76155,780.00513 153.6219,780.06079 153.48909,780.12329 C 153.35628,780.18579 153.23518,780.2522 153.12581,780.32251 C 153.12581,780.82642 153.16096,781.24732 153.23128,781.58521 C 153.30159,781.9231 153.40608,782.19361 153.54475,782.39673 C 153.68342,782.59985 153.85432,782.74439 154.05745,782.83032 C 154.26057,782.91626 154.49495,782.95923 154.76057,782.95923 C 154.98323,782.95923 155.18733,782.9231 155.37288,782.85083 C 155.55842,782.77857 155.71858,782.67212 155.85335,782.53149 C 155.98811,782.39087 156.09358,782.21997 156.16975,782.0188 C 156.24592,781.81763 156.28401,781.58814 156.28401,781.33032 L 156.28401,781.33032 z "
         id="text30930" />
      <path
         style="font-size:12px;font-style:normal;font-weight:normal;writing-mode:lr-tb;fill:#ffffff;fill-opacity:1;stroke:none;stroke-width:1px;stroke-linecap:butt;stroke-linejoin:miter;stroke-opacity:1;font-family:Consolas"
         d="M 185.33246,777.0354 L 182.12152,783.74438 L 180.95551,783.74438 L 184.28949,777.0354 L 180.15277,777.0354 L 180.15277,776.08618 L 185.33246,776.08618 L 185.33246,777.0354 z "
         id="text30934" />
      <path
         style="font-size:12px;font-style:normal;font-weight:normal;writing-mode:lr-tb;fill:#ffffff;fill-opacity:1;stroke:none;stroke-width:1px;stroke-linecap:butt;stroke-linejoin:miter;stroke-opacity:1;font-family:Consolas"
         d="M 214.50668,781.82251 C 214.50668,782.14673 214.44027,782.43482 214.30746,782.68677 C 214.17465,782.93872 213.9891,783.15064 213.75082,783.32251 C 213.51254,783.49439 213.23129,783.62524 212.90707,783.71509 C 212.58285,783.80493 212.23129,783.84985 211.85239,783.84985 C 211.43441,783.84985 211.06625,783.80298 210.74789,783.70923 C 210.42953,783.61548 210.16293,783.48462 209.94809,783.31665 C 209.73324,783.14868 209.57114,782.94946 209.46176,782.71899 C 209.35239,782.48853 209.2977,782.23462 209.2977,781.95728 C 209.2977,781.48853 209.42856,781.08423 209.69028,780.74438 C 209.95199,780.40454 210.35629,780.09595 210.90317,779.8186 C 210.40317,779.5647 210.03793,779.28248 209.80746,778.97192 C 209.57699,778.66138 209.46176,778.30494 209.46176,777.90259 C 209.46176,777.6565 209.51254,777.41822 209.61411,777.18774 C 209.71567,776.95728 209.86899,776.7522 210.07407,776.57251 C 210.27914,776.39283 210.53598,776.24928 210.84457,776.14185 C 211.15317,776.03443 211.51645,775.98072 211.93442,775.98071 C 212.32895,775.98072 212.67562,776.02271 212.97446,776.10669 C 213.27328,776.19068 213.52426,776.3108 213.72739,776.46704 C 213.93051,776.6233 214.08285,776.81275 214.18442,777.0354 C 214.28597,777.25806 214.33676,777.50611 214.33676,777.77954 C 214.33676,778.22486 214.21273,778.60376 213.96469,778.91626 C 213.71664,779.22876 213.3641,779.5022 212.90707,779.73657 C 213.13363,779.84986 213.34457,779.97486 213.53989,780.11157 C 213.73519,780.24829 213.90512,780.40064 214.04965,780.5686 C 214.19418,780.73658 214.30648,780.92408 214.38657,781.1311 C 214.46664,781.33814 214.50668,781.56861 214.50668,781.82251 L 214.50668,781.82251 z M 213.29379,777.86157 C 213.29379,777.51392 213.17172,777.25513 212.92758,777.08521 C 212.68344,776.91529 212.34066,776.83033 211.89926,776.83032 C 211.46176,776.83033 211.12094,776.91431 210.8768,777.08228 C 210.63266,777.25025 210.51059,777.5022 210.51059,777.83813 C 210.51059,777.99048 210.53988,778.13111 210.59848,778.26001 C 210.65707,778.38892 210.74789,778.51001 210.87094,778.62329 C 210.99399,778.73658 211.14731,778.84791 211.3309,778.95728 C 211.51449,779.06666 211.73324,779.17798 211.98715,779.29126 C 212.42855,779.08423 212.75668,778.86841 212.97153,778.6438 C 213.18637,778.41919 213.29379,778.15845 213.29379,777.86157 L 213.29379,777.86157 z M 213.39926,781.89868 C 213.39926,781.75415 213.37582,781.61353 213.32895,781.47681 C 213.28207,781.34009 213.19809,781.20532 213.077,781.07251 C 212.9559,780.9397 212.79379,780.80689 212.59067,780.67407 C 212.38754,780.54126 212.12973,780.40454 211.81723,780.26392 C 211.5516,780.39283 211.32797,780.52076 211.14633,780.64771 C 210.96469,780.77466 210.8182,780.90357 210.70688,781.03442 C 210.59555,781.16529 210.51645,781.30103 210.46957,781.44165 C 210.4227,781.58228 210.39926,781.73071 210.39926,781.88696 C 210.39926,782.06275 210.43735,782.21802 210.51352,782.35278 C 210.58969,782.48755 210.69418,782.60181 210.827,782.69556 C 210.95981,782.78931 211.11801,782.85962 211.30161,782.90649 C 211.4852,782.95337 211.68441,782.97681 211.89926,782.97681 C 212.10629,782.97681 212.3016,782.95532 212.4852,782.91235 C 212.66879,782.86939 212.82797,782.80396 212.96274,782.71606 C 213.0975,782.62817 213.20394,782.51685 213.28207,782.38208 C 213.36019,782.24732 213.39926,782.08618 213.39926,781.89868 L 213.39926,781.89868 z "
         id="text30938" />
      <path
         style="font-size:12px;font-style:normal;font-weight:normal;writing-mode:tb-rl;fill:#ffffff;fill-opacity:1;stroke:none;stroke-width:1px;stroke-linecap:butt;stroke-linejoin:miter;stroke-opacity:1;font-family:Consolas"
         d="M 333.10159,781.82251 C 333.10159,782.14673 333.03518,782.43482 332.90237,782.68677 C 332.76956,782.93872 332.58401,783.15064 332.34573,783.32251 C 332.10745,783.49439 331.8262,783.62524 331.50198,783.71509 C 331.17776,783.80493 330.8262,783.84985 330.4473,783.84985 C 330.02932,783.84985 329.66116,783.80298 329.3428,783.70923 C 329.02444,783.61548 328.75784,783.48462 328.543,783.31665 C 328.32815,783.14868 328.16605,782.94946 328.05667,782.71899 C 327.9473,782.48853 327.89261,782.23462 327.89261,781.95728 C 327.89261,781.48853 328.02347,781.08423 328.28519,780.74438 C 328.5469,780.40454 328.9512,780.09595 329.49808,779.8186 C 328.99808,779.5647 328.63284,779.28248 328.40237,778.97192 C 328.1719,778.66138 328.05667,778.30494 328.05667,777.90259 C 328.05667,777.6565 328.10745,777.41822 328.20901,777.18774 C 328.31058,776.95728 328.4639,776.7522 328.66898,776.57251 C 328.87405,776.39283 329.13089,776.24928 329.43948,776.14185 C 329.74807,776.03443 330.11136,775.98072 330.52933,775.98071 C 330.92385,775.98072 331.27053,776.02271 331.56937,776.10669 C 331.86819,776.19068 332.11917,776.3108 332.3223,776.46704 C 332.52542,776.6233 332.67776,776.81275 332.77933,777.0354 C 332.88088,777.25806 332.93167,777.50611 332.93167,777.77954 C 332.93167,778.22486 332.80764,778.60376 332.5596,778.91626 C 332.31155,779.22876 331.95901,779.5022 331.50198,779.73657 C 331.72854,779.84986 331.93948,779.97486 332.1348,780.11157 C 332.3301,780.24829 332.50003,780.40064 332.64456,780.5686 C 332.78909,780.73658 332.90139,780.92408 332.98148,781.1311 C 333.06155,781.33814 333.10159,781.56861 333.10159,781.82251 L 333.10159,781.82251 z M 331.8887,777.86157 C 331.8887,777.51392 331.76663,777.25513 331.52249,777.08521 C 331.27835,776.91529 330.93557,776.83033 330.49417,776.83032 C 330.05667,776.83033 329.71585,776.91431 329.47171,777.08228 C 329.22757,777.25025 329.1055,777.5022 329.1055,777.83813 C 329.1055,777.99048 329.13479,778.13111 329.19339,778.26001 C 329.25198,778.38892 329.3428,778.51001 329.46585,778.62329 C 329.5889,778.73658 329.74222,778.84791 329.92581,778.95728 C 330.1094,779.06666 330.32815,779.17798 330.58206,779.29126 C 331.02346,779.08423 331.35159,778.86841 331.56644,778.6438 C 331.78128,778.41919 331.8887,778.15845 331.8887,777.86157 L 331.8887,777.86157 z M 331.99417,781.89868 C 331.99417,781.75415 331.97073,781.61353 331.92386,781.47681 C 331.87698,781.34009 331.79299,781.20532 331.67191,781.07251 C 331.55081,780.9397 331.3887,780.80689 331.18558,780.67407 C 330.98245,780.54126 330.72464,780.40454 330.41214,780.26392 C 330.14651,780.39283 329.92288,780.52076 329.74124,780.64771 C 329.5596,780.77466 329.41311,780.90357 329.30179,781.03442 C 329.19046,781.16529 329.11136,781.30103 329.06448,781.44165 C 329.01761,781.58228 328.99417,781.73071 328.99417,781.88696 C 328.99417,782.06275 329.03226,782.21802 329.10843,782.35278 C 329.1846,782.48755 329.28909,782.60181 329.42191,782.69556 C 329.55472,782.78931 329.71292,782.85962 329.89651,782.90649 C 330.08011,782.95337 330.27932,782.97681 330.49417,782.97681 C 330.7012,782.97681 330.89651,782.95532 331.08011,782.91235 C 331.2637,782.86939 331.42288,782.80396 331.55765,782.71606 C 331.69241,782.62817 331.79885,782.51685 331.87698,782.38208 C 331.9551,782.24732 331.99417,782.08618 331.99417,781.89868 L 331.99417,781.89868 z "
         id="text30942" />
      <path
         style="font-size:12px;font-style:normal;font-weight:normal;writing-mode:tb-rl;fill:#ffffff;fill-opacity:1;stroke:none;stroke-width:1px;stroke-linecap:butt;stroke-linejoin:miter;stroke-opacity:1;font-family:Consolas"
         d="M 362.25003,777.0354 L 359.03909,783.74438 L 357.87308,783.74438 L 361.20706,777.0354 L 357.07034,777.0354 L 357.07034,776.08618 L 362.25003,776.08618 L 362.25003,777.0354 z "
         id="text30946" />
      <path
         style="font-size:12px;font-style:normal;font-weight:normal;writing-mode:tb-rl;fill:#ffffff;fill-opacity:1;stroke:none;stroke-width:1px;stroke-linecap:butt;stroke-linejoin:miter;stroke-opacity:1;font-family:Consolas"
         d="M 390.42892,781.26587 C 390.42892,781.61743 390.36544,781.94751 390.23849,782.2561 C 390.11154,782.5647 389.93087,782.83325 389.6965,783.06177 C 389.46212,783.29028 389.1799,783.46997 388.84982,783.60083 C 388.51974,783.73169 388.15353,783.79712 387.75119,783.79712 C 387.32931,783.79712 386.95627,783.72974 386.63205,783.59497 C 386.30783,783.46021 386.03634,783.25317 385.8176,782.97388 C 385.59885,782.69458 385.43283,782.34204 385.31955,781.91626 C 385.20627,781.49048 385.14963,780.98657 385.14963,780.40454 C 385.14963,780.01392 385.17502,779.63501 385.2258,779.26782 C 385.27658,778.90064 385.36056,778.55494 385.47775,778.23071 C 385.59494,777.9065 385.75119,777.60963 385.9465,777.34009 C 386.14181,777.07056 386.38498,776.83912 386.67599,776.64575 C 386.96701,776.4524 387.30978,776.30201 387.70432,776.19458 C 388.09884,776.08717 388.55587,776.03345 389.07541,776.03345 L 389.83127,776.03345 L 389.83127,776.92407 L 389.01096,776.92407 C 388.55392,776.92408 388.15744,776.97877 387.8215,777.08813 C 387.48556,777.19752 387.20431,777.35181 386.97775,777.55103 C 386.75119,777.75025 386.57736,777.99048 386.45627,778.27173 C 386.33517,778.55298 386.259,778.86744 386.22775,779.21509 L 386.20432,779.45532 C 386.45041,779.3108 386.73459,779.19458 387.05685,779.10669 C 387.37912,779.0188 387.72775,778.97486 388.10275,778.97485 C 388.48947,778.97486 388.82833,779.0315 389.11935,779.14478 C 389.41036,779.25806 389.65255,779.41529 389.84592,779.61646 C 390.03927,779.81763 390.18478,780.05884 390.28244,780.34009 C 390.38009,780.62134 390.42892,780.92993 390.42892,781.26587 L 390.42892,781.26587 z M 389.36252,781.33032 C 389.36251,781.09595 389.33419,780.88404 389.27756,780.69458 C 389.22091,780.50513 389.13204,780.34497 389.01096,780.21411 C 388.88986,780.08326 388.73654,779.98169 388.55099,779.90942 C 388.36544,779.83716 388.14376,779.80103 387.88596,779.80103 C 387.73752,779.80103 387.58712,779.8147 387.43478,779.84204 C 387.28244,779.86939 387.13302,779.90747 386.98654,779.9563 C 386.84005,780.00513 386.70041,780.06079 386.5676,780.12329 C 386.43478,780.18579 386.31369,780.2522 386.20432,780.32251 C 386.20431,780.82642 386.23947,781.24732 386.30978,781.58521 C 386.38009,781.9231 386.48459,782.19361 386.62326,782.39673 C 386.76193,782.59985 386.93283,782.74439 387.13596,782.83032 C 387.33908,782.91626 387.57345,782.95923 387.83908,782.95923 C 388.06173,782.95923 388.26583,782.9231 388.45139,782.85083 C 388.63693,782.77857 388.79708,782.67212 388.93185,782.53149 C 389.06662,782.39087 389.17208,782.21997 389.24826,782.0188 C 389.32443,781.81763 389.36251,781.58814 389.36252,781.33032 L 389.36252,781.33032 z "
         id="text30950" />
      <path
         style="font-size:12px;font-style:normal;font-weight:normal;writing-mode:tb-rl;fill:#ffffff;fill-opacity:1;stroke:none;stroke-width:1px;stroke-linecap:butt;stroke-linejoin:miter;stroke-opacity:1;font-family:Consolas"
         d="M 417.87543,781.24243 C 417.87542,781.62134 417.79339,781.96704 417.62933,782.27954 C 417.46527,782.59204 417.23968,782.8606 416.95258,783.08521 C 416.66546,783.30981 416.32659,783.48462 415.93597,783.60962 C 415.54535,783.73462 415.12347,783.79712 414.67035,783.79712 C 414.55707,783.79712 414.435,783.79419 414.30414,783.78833 C 414.17328,783.78247 414.04339,783.77466 413.91449,783.76489 C 413.78558,783.75513 413.65961,783.74438 413.53656,783.73267 C 413.41351,783.72095 413.30316,783.70728 413.20551,783.69165 L 413.20551,782.76587 C 413.41644,782.81665 413.65765,782.85376 413.92914,782.8772 C 414.20062,782.90064 414.47503,782.91235 414.75238,782.91235 C 415.06488,782.91235 415.34613,782.87524 415.59613,782.80103 C 415.84613,782.72681 416.05902,782.62036 416.2348,782.48169 C 416.41058,782.34302 416.54534,782.17505 416.6391,781.97778 C 416.73284,781.78052 416.77972,781.55884 416.77972,781.31274 C 416.77972,780.83618 416.60882,780.48951 416.26703,780.27271 C 415.92523,780.05591 415.43402,779.94751 414.7934,779.94751 L 413.34027,779.94751 L 413.34027,776.03345 L 417.46527,776.03345 L 417.46527,776.92407 L 414.30121,776.92407 L 414.30121,779.07446 L 414.96918,779.07446 C 415.33636,779.07447 415.69378,779.10767 416.04144,779.17407 C 416.38909,779.24048 416.69866,779.35669 416.97015,779.52271 C 417.24163,779.68872 417.46038,779.91138 417.6264,780.19067 C 417.79241,780.46997 417.87542,780.82056 417.87543,781.24243 L 417.87543,781.24243 z "
         id="text30954" />
      <path
         style="font-size:12px;font-style:normal;font-weight:normal;writing-mode:tb-rl;fill:#ffffff;fill-opacity:1;stroke:none;stroke-width:1px;stroke-linecap:butt;stroke-linejoin:miter;stroke-opacity:1;font-family:Consolas"
         d="M 448.41684,782.05103 L 447.1102,782.05103 L 447.1102,783.74438 L 446.06723,783.74438 L 446.06723,782.05103 L 442.38168,782.05103 L 442.38168,781.15454 L 445.64536,776.08618 L 447.1102,776.08618 L 447.1102,781.15454 L 448.41684,781.15454 L 448.41684,782.05103 z M 446.06723,777.07056 L 443.40121,781.15454 L 446.06723,781.15454 L 446.06723,777.07056 z "
         id="text30958" />
      <path
         style="font-size:12px;font-style:normal;font-weight:normal;writing-mode:tb-rl;fill:#000000;fill-opacity:1;stroke:none;stroke-width:1px;stroke-linecap:butt;stroke-linejoin:miter;stroke-opacity:1;font-family:Consolas"
         inkscape:transform-center-x="-5.5"
         d="M 480.4223,781.41821 C 480.4223,781.75415 480.35394,782.06958 480.21722,782.3645 C 480.0805,782.65942 479.87542,782.91724 479.60199,783.13794 C 479.32855,783.35864 478.9848,783.53247 478.57074,783.65942 C 478.15667,783.78638 477.67425,783.84985 477.12347,783.84985 C 476.81878,783.84985 476.54535,783.84009 476.30316,783.82056 C 476.06097,783.80103 475.83441,783.77563 475.62347,783.74438 L 475.62347,782.83032 C 475.86566,782.87329 476.12152,782.90649 476.39105,782.92993 C 476.66058,782.95337 476.93597,782.96509 477.21722,782.96509 C 477.60003,782.96509 477.92718,782.93091 478.19867,782.86255 C 478.47015,782.79419 478.69183,782.69556 478.86371,782.56665 C 479.03558,782.43775 479.16058,782.2815 479.23871,782.0979 C 479.31683,781.91431 479.35589,781.70728 479.3559,781.47681 C 479.35589,781.26587 479.30902,781.08228 479.21527,780.92603 C 479.12152,780.76978 478.98968,780.63892 478.81976,780.53345 C 478.64984,780.42798 478.44671,780.34888 478.21039,780.29614 C 477.97406,780.24341 477.71527,780.21704 477.43402,780.21704 L 476.56097,780.21704 L 476.56097,779.37915 L 477.44574,779.37915 C 477.67621,779.37915 477.88617,779.34888 478.07562,779.28833 C 478.26507,779.22779 478.42718,779.14087 478.56195,779.02759 C 478.69671,778.91431 478.80023,778.77466 478.8725,778.60864 C 478.94476,778.44263 478.98089,778.25416 478.9809,778.04321 C 478.98089,777.63306 478.85589,777.33423 478.6059,777.14673 C 478.35589,776.95924 477.98871,776.86549 477.50433,776.86548 C 477.24652,776.86549 476.98089,776.89088 476.70746,776.94165 C 476.43402,776.99244 476.14105,777.06861 475.82855,777.17017 L 475.82855,776.27954 C 475.96136,776.23267 476.10296,776.19068 476.25336,776.15356 C 476.40375,776.11646 476.55414,776.08521 476.70453,776.05981 C 476.85492,776.03443 477.00433,776.0149 477.15277,776.00122 C 477.30121,775.98756 477.44378,775.98072 477.58051,775.98071 C 477.98675,775.98072 478.34417,776.02467 478.65277,776.11255 C 478.96136,776.20045 479.21917,776.32642 479.42621,776.49048 C 479.63323,776.65455 479.78948,776.85377 479.89496,777.08813 C 480.00042,777.32252 480.05316,777.58619 480.05316,777.87915 C 480.05316,778.31666 479.94085,778.68384 479.71625,778.98071 C 479.49163,779.27759 479.18402,779.51392 478.7934,779.6897 C 478.99261,779.72095 479.1889,779.78345 479.38226,779.8772 C 479.57562,779.97095 479.74945,780.09107 479.90375,780.23755 C 480.05804,780.38404 480.18304,780.55689 480.27875,780.7561 C 480.37444,780.95533 480.4223,781.17603 480.4223,781.41821 L 480.4223,781.41821 z "
         id="text30962" />
      <path
         style="font-size:12px;font-style:normal;font-weight:normal;writing-mode:tb-rl;fill:#000000;fill-opacity:1;stroke:none;stroke-width:1px;stroke-linecap:butt;stroke-linejoin:miter;stroke-opacity:1;font-family:Consolas"
         d="M 504.50119,783.79712 L 499.45627,783.79712 L 499.45627,782.88306 L 501.43674,780.91431 C 501.76095,780.594 502.02462,780.31665 502.22775,780.08228 C 502.43087,779.8479 502.58908,779.63404 502.70236,779.44067 C 502.81564,779.24732 502.89181,779.0647 502.93088,778.89282 C 502.96994,778.72095 502.98947,778.53541 502.98947,778.33618 C 502.98947,778.14869 502.96408,777.96998 502.9133,777.80005 C 502.86251,777.63013 502.78439,777.48072 502.67892,777.35181 C 502.57345,777.22291 502.43673,777.12134 502.26877,777.04712 C 502.1008,776.97291 501.89962,776.9358 501.66525,776.93579 C 501.34103,776.9358 501.04611,777.00806 500.78049,777.15259 C 500.51486,777.29713 500.27072,777.48463 500.04807,777.71509 L 499.48557,777.04126 C 499.77463,776.73658 500.10763,776.49244 500.48459,776.30884 C 500.86154,776.12525 501.30002,776.03346 501.80002,776.03345 C 502.13986,776.03346 502.44943,776.08424 502.72873,776.18579 C 503.00802,776.28736 503.24923,776.43385 503.45236,776.62524 C 503.65548,776.81666 503.81271,777.05103 503.92404,777.32837 C 504.03536,777.60572 504.09103,777.91822 504.09103,778.26587 C 504.09103,778.55884 504.05197,778.83033 503.97385,779.08032 C 503.89572,779.33033 503.77755,779.57935 503.61935,779.82739 C 503.46115,780.07544 503.26193,780.33228 503.0217,780.5979 C 502.78146,780.86353 502.49728,781.15454 502.16916,781.47095 L 500.78049,782.82446 L 504.50119,782.82446 L 504.50119,783.79712 z "
         id="text30966" />
      <path
         style="font-size:12px;font-style:normal;font-weight:normal;writing-mode:tb-rl;fill:#000000;fill-opacity:1;stroke:none;stroke-width:1px;stroke-linecap:butt;stroke-linejoin:miter;stroke-opacity:1;font-family:Consolas"
         d="M 532.53717,783.76196 L 527.72662,783.76196 L 527.72662,782.81274 L 529.69537,782.81274 L 529.69537,777.2229 L 527.86139,778.21899 L 527.48639,777.35181 L 529.92389,776.0686 L 530.82623,776.0686 L 530.82623,782.81274 L 532.53717,782.81274 L 532.53717,783.76196 z "
         id="text30970" />
      <path
         style="font-size:12px;font-style:normal;font-weight:normal;writing-mode:tb-rl;fill:#000000;fill-opacity:1;stroke:none;stroke-width:1px;stroke-linecap:butt;stroke-linejoin:miter;stroke-opacity:1;font-family:Consolas"
         d="M 273.97589,525.50201 L 269.16534,525.50201 L 269.16534,524.5528 L 271.13409,524.5528 L 271.13409,518.96295 L 269.30011,519.95905 L 268.92511,519.09186 L 271.36261,517.80865 L 272.26495,517.80865 L 272.26495,524.5528 L 273.97589,524.5528 L 273.97589,525.50201 z "
         id="text30974" />
      <path
         style="font-size:12px;font-style:normal;font-weight:normal;writing-mode:tb-rl;fill:#000000;fill-opacity:1;stroke:none;stroke-width:1px;stroke-linecap:butt;stroke-linejoin:miter;stroke-opacity:1;font-family:Consolas"
         d="M 273.73273,552.57666 L 268.68781,552.57666 L 268.68781,551.6626 L 270.66827,549.69385 C 270.99249,549.37354 271.25616,549.09619 271.45929,548.86182 C 271.66241,548.62745 271.82061,548.41358 271.9339,548.22021 C 272.04718,548.02686 272.12335,547.84424 272.16241,547.67236 C 272.20147,547.50049 272.221,547.31495 272.22101,547.11572 C 272.221,546.92823 272.19561,546.74952 272.14484,546.57959 C 272.09405,546.40967 272.01593,546.26026 271.91046,546.13135 C 271.80499,546.00245 271.66827,545.90089 271.50031,545.82666 C 271.33233,545.75245 271.13116,545.71534 270.89679,545.71533 C 270.57257,545.71534 270.27765,545.7876 270.01202,545.93213 C 269.7464,546.07667 269.50226,546.26417 269.2796,546.49463 L 268.7171,545.8208 C 269.00616,545.51612 269.33917,545.27198 269.71613,545.08838 C 270.09308,544.90479 270.53155,544.813 271.03156,544.81299 C 271.3714,544.813 271.68097,544.86378 271.96027,544.96533 C 272.23956,545.0669 272.48077,545.21339 272.6839,545.40479 C 272.88702,545.5962 273.04425,545.83057 273.15558,546.10791 C 273.2669,546.38526 273.32257,546.69776 273.32257,547.04541 C 273.32257,547.33838 273.2835,547.60987 273.20538,547.85986 C 273.12725,548.10987 273.00909,548.35889 272.85089,548.60693 C 272.69268,548.85498 272.49346,549.11182 272.25323,549.37744 C 272.013,549.64307 271.72882,549.93408 271.4007,550.25049 L 270.01202,551.604 L 273.73273,551.604 L 273.73273,552.57666 z "
         id="text30978" />
      <path
         style="font-size:12px;font-style:normal;font-weight:normal;writing-mode:tb-rl;fill:#000000;fill-opacity:1;stroke:none;stroke-width:1px;stroke-linecap:butt;stroke-linejoin:miter;stroke-opacity:1;font-family:Consolas"
         d="M 273.46613,574.31104 C 273.46612,574.64697 273.39776,574.9624 273.26105,575.25732 C 273.12432,575.55225 272.91925,575.81006 272.64581,576.03076 C 272.37237,576.25147 272.02862,576.42529 271.61456,576.55225 C 271.2005,576.6792 270.71808,576.74268 270.1673,576.74268 C 269.86261,576.74268 269.58917,576.73291 269.34698,576.71338 C 269.1048,576.69385 268.87823,576.66846 268.6673,576.63721 L 268.6673,575.72314 C 268.90948,575.76611 269.16534,575.79932 269.43488,575.82275 C 269.7044,575.84619 269.9798,575.85791 270.26105,575.85791 C 270.64386,575.85791 270.97101,575.82373 271.24249,575.75537 C 271.51397,575.68701 271.73565,575.58838 271.90753,575.45947 C 272.0794,575.33057 272.2044,575.17432 272.28253,574.99072 C 272.36065,574.80713 272.39971,574.6001 272.39972,574.36963 C 272.39971,574.15869 272.35284,573.9751 272.25909,573.81885 C 272.16534,573.6626 272.0335,573.53174 271.86359,573.42627 C 271.69366,573.3208 271.49054,573.2417 271.25421,573.18896 C 271.01788,573.13623 270.75909,573.10987 270.47784,573.10986 L 269.6048,573.10986 L 269.6048,572.27197 L 270.48956,572.27197 C 270.72003,572.27198 270.92999,572.2417 271.11945,572.18115 C 271.3089,572.12061 271.471,572.0337 271.60577,571.92041 C 271.74054,571.80713 271.84405,571.66749 271.91632,571.50146 C 271.98858,571.33545 272.02471,571.14698 272.02472,570.93604 C 272.02471,570.52589 271.89972,570.22706 271.64972,570.03955 C 271.39972,569.85206 271.03253,569.75831 270.54816,569.7583 C 270.29034,569.75831 270.02472,569.7837 269.75128,569.83447 C 269.47784,569.88526 269.18487,569.96143 268.87238,570.06299 L 268.87238,569.17236 C 269.00519,569.1255 269.14679,569.0835 269.29718,569.04639 C 269.44757,569.00928 269.59796,568.97804 269.74835,568.95264 C 269.89874,568.92725 270.04815,568.90772 270.19659,568.89404 C 270.34503,568.88038 270.48761,568.87354 270.62433,568.87354 C 271.03058,568.87354 271.388,568.91749 271.69659,569.00537 C 272.00518,569.09327 272.263,569.21925 272.47003,569.3833 C 272.67706,569.54737 272.83331,569.74659 272.93878,569.98096 C 273.04425,570.21534 273.09698,570.47901 273.09698,570.77197 C 273.09698,571.20948 272.98467,571.57667 272.76007,571.87354 C 272.53546,572.17041 272.22784,572.40674 271.83722,572.58252 C 272.03643,572.61377 272.23272,572.67627 272.42609,572.77002 C 272.61944,572.86377 272.79327,572.98389 272.94757,573.13037 C 273.10186,573.27686 273.22686,573.44971 273.32257,573.64893 C 273.41827,573.84815 273.46612,574.06885 273.46613,574.31104 L 273.46613,574.31104 z "
         id="text30982" />
      <path
         style="font-size:12px;font-style:normal;font-weight:normal;writing-mode:tb-rl;fill:#ffffff;fill-opacity:1;stroke:none;stroke-width:1px;stroke-linecap:butt;stroke-linejoin:miter;stroke-opacity:1;font-family:Consolas"
         d="M 274.18683,607.57507 L 272.88019,607.57507 L 272.88019,609.26843 L 271.83722,609.26843 L 271.83722,607.57507 L 268.15167,607.57507 L 268.15167,606.67859 L 271.41534,601.61023 L 272.88019,601.61023 L 272.88019,606.67859 L 274.18683,606.67859 L 274.18683,607.57507 z M 271.83722,602.5946 L 269.1712,606.67859 L 271.83722,606.67859 L 271.83722,602.5946 z "
         id="text30986" />
      <path
         style="font-size:12px;font-style:normal;font-weight:normal;writing-mode:tb-rl;fill:#ffffff;fill-opacity:1;stroke:none;stroke-width:1px;stroke-linecap:butt;stroke-linejoin:miter;stroke-opacity:1;font-family:Consolas"
         d="M 273.38995,635.81921 C 273.38995,636.19812 273.30792,636.54382 273.14386,636.85632 C 272.97979,637.16882 272.75421,637.43738 272.4671,637.66199 C 272.17999,637.8866 271.84112,638.0614 271.4505,638.1864 C 271.05987,638.3114 270.638,638.3739 270.18488,638.3739 C 270.07159,638.3739 269.94952,638.37097 269.81866,638.36511 C 269.6878,638.35925 269.55792,638.35144 269.42902,638.34167 C 269.30011,638.33191 269.17413,638.32117 269.05109,638.30945 C 268.92804,638.29773 268.81769,638.28406 268.72003,638.26843 L 268.72003,637.34265 C 268.93097,637.39343 269.17218,637.43054 269.44366,637.45398 C 269.71515,637.47742 269.98956,637.48914 270.26691,637.48914 C 270.5794,637.48914 270.86065,637.45203 271.11066,637.37781 C 271.36065,637.30359 271.57354,637.19714 271.74933,637.05847 C 271.92511,636.9198 272.05987,636.75183 272.15363,636.55457 C 272.24737,636.3573 272.29425,636.13562 272.29425,635.88953 C 272.29425,635.41297 272.12335,635.06629 271.78156,634.84949 C 271.43975,634.63269 270.94854,634.5243 270.30792,634.52429 L 268.8548,634.52429 L 268.8548,630.61023 L 272.9798,630.61023 L 272.9798,631.50085 L 269.81573,631.50085 L 269.81573,633.65125 L 270.4837,633.65125 C 270.85089,633.65125 271.20831,633.68445 271.55597,633.75085 C 271.90362,633.81727 272.21319,633.93348 272.48468,634.09949 C 272.75616,634.26551 272.97491,634.48816 273.14093,634.76746 C 273.30694,635.04676 273.38995,635.39734 273.38995,635.81921 L 273.38995,635.81921 z "
         id="text30990" />
      <path
         style="font-size:12px;font-style:normal;font-weight:normal;writing-mode:tb-rl;fill:#ffffff;fill-opacity:1;stroke:none;stroke-width:1px;stroke-linecap:butt;stroke-linejoin:miter;stroke-opacity:1;font-family:Consolas"
         d="M 273.73566,663.84265 C 273.73565,664.19422 273.67217,664.52429 273.54523,664.83289 C 273.41827,665.14148 273.2376,665.41004 273.00323,665.63855 C 272.76885,665.86707 272.48663,666.04675 272.15656,666.17761 C 271.82647,666.30847 271.46026,666.3739 271.05792,666.3739 C 270.63604,666.3739 270.263,666.30652 269.93878,666.17175 C 269.61456,666.03699 269.34308,665.82996 269.12433,665.55066 C 268.90558,665.27136 268.73956,664.91882 268.62628,664.49304 C 268.513,664.06726 268.45636,663.56336 268.45636,662.98132 C 268.45636,662.5907 268.48175,662.2118 268.53253,661.8446 C 268.58331,661.47742 268.6673,661.13172 268.78448,660.8075 C 268.90167,660.48328 269.05792,660.18641 269.25323,659.91687 C 269.44855,659.64735 269.69171,659.4159 269.98273,659.22253 C 270.27374,659.02918 270.61651,658.87879 271.01105,658.77136 C 271.40557,658.66395 271.86261,658.61024 272.38214,658.61023 L 273.138,658.61023 L 273.138,659.50085 L 272.31769,659.50085 C 271.86065,659.50086 271.46417,659.55555 271.12823,659.66492 C 270.79229,659.7743 270.51104,659.9286 270.28448,660.12781 C 270.05792,660.32703 269.88409,660.56727 269.763,660.84851 C 269.6419,661.12977 269.56573,661.44422 269.53448,661.79187 L 269.51105,662.0321 C 269.75714,661.88758 270.04132,661.77137 270.36359,661.68347 C 270.68585,661.59559 271.03448,661.55164 271.40948,661.55164 C 271.7962,661.55164 272.13507,661.60828 272.42609,661.72156 C 272.7171,661.83484 272.95928,661.99207 273.15265,662.19324 C 273.346,662.39441 273.49151,662.63562 273.58917,662.91687 C 273.68682,663.19812 273.73565,663.50672 273.73566,663.84265 L 273.73566,663.84265 z M 272.66925,663.9071 C 272.66925,663.67273 272.64093,663.46082 272.58429,663.27136 C 272.52764,663.08191 272.43878,662.92176 272.31769,662.79089 C 272.19659,662.66004 272.04327,662.55848 271.85773,662.48621 C 271.67218,662.41394 271.4505,662.37781 271.19269,662.37781 C 271.04425,662.37781 270.89386,662.39148 270.74152,662.41882 C 270.58917,662.44617 270.43976,662.48426 270.29327,662.53308 C 270.14679,662.58191 270.00714,662.63758 269.87433,662.70007 C 269.74151,662.76258 269.62042,662.82898 269.51105,662.89929 C 269.51105,663.4032 269.5462,663.8241 269.61652,664.16199 C 269.68683,664.49988 269.79132,664.77039 269.92999,664.97351 C 270.06866,665.17664 270.23956,665.32117 270.44269,665.4071 C 270.64581,665.49304 270.88018,665.53601 271.14581,665.53601 C 271.36847,665.53601 271.57257,665.49988 271.75812,665.42761 C 271.94366,665.35535 272.10382,665.2489 272.23859,665.10828 C 272.37335,664.96765 272.47882,664.79675 272.55499,664.59558 C 272.63116,664.39441 272.66925,664.16492 272.66925,663.9071 L 272.66925,663.9071 z "
         id="text30994" />
      <path
         style="font-size:12px;font-style:normal;font-weight:normal;writing-mode:tb-rl;fill:#ffffff;fill-opacity:1;stroke:none;stroke-width:1px;stroke-linecap:butt;stroke-linejoin:miter;stroke-opacity:1;font-family:Consolas"
         d="M 273.53937,687.79303 L 270.32843,694.50201 L 269.16241,694.50201 L 272.4964,687.79303 L 268.35968,687.79303 L 268.35968,686.84381 L 273.53937,686.84381 L 273.53937,687.79303 z "
         id="text30998" />
      <path
         style="font-size:12px;font-style:normal;font-weight:normal;writing-mode:tb-rl;fill:#ffffff;fill-opacity:1;stroke:none;stroke-width:1px;stroke-linecap:butt;stroke-linejoin:miter;stroke-opacity:1;font-family:Consolas"
         d="M 273.61261,721.08014 C 273.6126,721.40436 273.5462,721.69245 273.41339,721.9444 C 273.28057,722.19635 273.09503,722.40826 272.85675,722.58014 C 272.61846,722.75201 272.33721,722.88287 272.013,722.97272 C 271.68878,723.06256 271.33722,723.10748 270.95831,723.10748 C 270.54034,723.10748 270.17218,723.06061 269.85382,722.96686 C 269.53546,722.87311 269.26886,722.74225 269.05402,722.57428 C 268.83917,722.40631 268.67706,722.20709 268.56769,721.97662 C 268.45831,721.74616 268.40362,721.49225 268.40363,721.2149 C 268.40362,720.74616 268.53448,720.34186 268.7962,720.00201 C 269.05792,719.66217 269.46222,719.35358 270.00909,719.07623 C 269.50909,718.82233 269.14386,718.5401 268.91339,718.22955 C 268.68292,717.91901 268.56769,717.56257 268.56769,717.16022 C 268.56769,716.91413 268.61847,716.67585 268.72003,716.44537 C 268.82159,716.21491 268.97491,716.00983 269.17999,715.83014 C 269.38507,715.65046 269.6419,715.5069 269.9505,715.39948 C 270.25909,715.29206 270.62237,715.23835 271.04034,715.23834 C 271.43487,715.23835 271.78155,715.28034 272.08038,715.36432 C 272.37921,715.44831 272.63018,715.56843 272.83331,715.72467 C 273.03643,715.88093 273.18878,716.07038 273.29034,716.29303 C 273.3919,716.51569 273.44268,716.76374 273.44269,717.03717 C 273.44268,717.48249 273.31866,717.86139 273.07062,718.17389 C 272.82257,718.48639 272.47003,718.75983 272.013,718.9942 C 272.23956,719.10749 272.4505,719.23249 272.64581,719.3692 C 272.84112,719.50592 273.01104,719.65827 273.15558,719.82623 C 273.3001,719.9942 273.41241,720.1817 273.49249,720.38873 C 273.57256,720.59577 273.6126,720.82624 273.61261,721.08014 L 273.61261,721.08014 z M 272.39972,717.1192 C 272.39971,716.77155 272.27764,716.51276 272.03351,716.34283 C 271.78936,716.17292 271.44659,716.08796 271.00519,716.08795 C 270.56769,716.08796 270.22687,716.17194 269.98273,716.3399 C 269.73858,716.50788 269.61651,716.75983 269.61652,717.09576 C 269.61651,717.24811 269.64581,717.38874 269.70441,717.51764 C 269.763,717.64655 269.85382,717.76764 269.97687,717.88092 C 270.09991,717.99421 270.25323,718.10553 270.43683,718.2149 C 270.62042,718.32428 270.83917,718.43561 271.09308,718.54889 C 271.53448,718.34186 271.86261,718.12604 272.07745,717.90143 C 272.29229,717.67682 272.39971,717.41608 272.39972,717.1192 L 272.39972,717.1192 z M 272.50519,721.15631 C 272.50518,721.01178 272.48175,720.87116 272.43488,720.73444 C 272.388,720.59772 272.30401,720.46295 272.18292,720.33014 C 272.06182,720.19733 271.89972,720.06452 271.69659,719.9317 C 271.49347,719.79889 271.23565,719.66217 270.92316,719.52155 C 270.65753,719.65046 270.4339,719.77838 270.25226,719.90533 C 270.07062,720.03229 269.92413,720.1612 269.81281,720.29205 C 269.70148,720.42292 269.62237,720.55866 269.5755,720.69928 C 269.52862,720.83991 269.50519,720.98834 269.50519,721.14459 C 269.50519,721.32038 269.54327,721.47565 269.61945,721.61041 C 269.69562,721.74518 269.80011,721.85944 269.93292,721.95319 C 270.06573,722.04694 270.22394,722.11725 270.40753,722.16412 C 270.59112,722.211 270.79034,722.23444 271.00519,722.23444 C 271.21222,722.23444 271.40753,722.21295 271.59113,722.16998 C 271.77472,722.12702 271.93389,722.06159 272.06866,721.97369 C 272.20343,721.8858 272.30987,721.77448 272.388,721.63971 C 272.46612,721.50495 272.50518,721.34381 272.50519,721.15631 L 272.50519,721.15631 z "
         id="text31002" />
      <path
         style="font-size:12px;font-style:normal;font-weight:normal;writing-mode:tb-rl;fill:#ffffff;fill-opacity:1;stroke:none;stroke-width:1px;stroke-linecap:butt;stroke-linejoin:miter;stroke-opacity:1;font-family:Consolas"
         d="M 273.61261,841.34656 C 273.6126,841.67078 273.5462,841.95886 273.41339,842.21082 C 273.28057,842.46277 273.09503,842.67468 272.85675,842.84656 C 272.61846,843.01843 272.33721,843.14929 272.013,843.23914 C 271.68878,843.32898 271.33722,843.3739 270.95831,843.3739 C 270.54034,843.3739 270.17218,843.32703 269.85382,843.23328 C 269.53546,843.13953 269.26886,843.00867 269.05402,842.8407 C 268.83917,842.67273 268.67706,842.47351 268.56769,842.24304 C 268.45831,842.01257 268.40362,841.75867 268.40363,841.48132 C 268.40362,841.01258 268.53448,840.60828 268.7962,840.26843 C 269.05792,839.92859 269.46222,839.62 270.00909,839.34265 C 269.50909,839.08875 269.14386,838.80652 268.91339,838.49597 C 268.68292,838.18543 268.56769,837.82898 268.56769,837.42664 C 268.56769,837.18055 268.61847,836.94227 268.72003,836.71179 C 268.82159,836.48133 268.97491,836.27625 269.17999,836.09656 C 269.38507,835.91688 269.6419,835.77332 269.9505,835.66589 C 270.25909,835.55848 270.62237,835.50477 271.04034,835.50476 C 271.43487,835.50477 271.78155,835.54676 272.08038,835.63074 C 272.37921,835.71473 272.63018,835.83485 272.83331,835.99109 C 273.03643,836.14735 273.18878,836.3368 273.29034,836.55945 C 273.3919,836.78211 273.44268,837.03016 273.44269,837.30359 C 273.44268,837.74891 273.31866,838.12781 273.07062,838.44031 C 272.82257,838.75281 272.47003,839.02625 272.013,839.26062 C 272.23956,839.37391 272.4505,839.49891 272.64581,839.63562 C 272.84112,839.77234 273.01104,839.92469 273.15558,840.09265 C 273.3001,840.26062 273.41241,840.44812 273.49249,840.65515 C 273.57256,840.86219 273.6126,841.09265 273.61261,841.34656 L 273.61261,841.34656 z M 272.39972,837.38562 C 272.39971,837.03797 272.27764,836.77918 272.03351,836.60925 C 271.78936,836.43934 271.44659,836.35438 271.00519,836.35437 C 270.56769,836.35438 270.22687,836.43836 269.98273,836.60632 C 269.73858,836.7743 269.61651,837.02625 269.61652,837.36218 C 269.61651,837.51453 269.64581,837.65516 269.70441,837.78406 C 269.763,837.91297 269.85382,838.03406 269.97687,838.14734 C 270.09991,838.26063 270.25323,838.37195 270.43683,838.48132 C 270.62042,838.5907 270.83917,838.70203 271.09308,838.81531 C 271.53448,838.60828 271.86261,838.39246 272.07745,838.16785 C 272.29229,837.94324 272.39971,837.6825 272.39972,837.38562 L 272.39972,837.38562 z M 272.50519,841.42273 C 272.50518,841.2782 272.48175,841.13758 272.43488,841.00085 C 272.388,840.86414 272.30401,840.72937 272.18292,840.59656 C 272.06182,840.46375 271.89972,840.33094 271.69659,840.19812 C 271.49347,840.06531 271.23565,839.92859 270.92316,839.78796 C 270.65753,839.91687 270.4339,840.0448 270.25226,840.17175 C 270.07062,840.29871 269.92413,840.42762 269.81281,840.55847 C 269.70148,840.68933 269.62237,840.82508 269.5755,840.9657 C 269.52862,841.10633 269.50519,841.25476 269.50519,841.41101 C 269.50519,841.58679 269.54327,841.74207 269.61945,841.87683 C 269.69562,842.0116 269.80011,842.12586 269.93292,842.2196 C 270.06573,842.31336 270.22394,842.38367 270.40753,842.43054 C 270.59112,842.47742 270.79034,842.50086 271.00519,842.50085 C 271.21222,842.50086 271.40753,842.47937 271.59113,842.4364 C 271.77472,842.39343 271.93389,842.328 272.06866,842.24011 C 272.20343,842.15222 272.30987,842.04089 272.388,841.90613 C 272.46612,841.77136 272.50518,841.61023 272.50519,841.42273 L 272.50519,841.42273 z "
         id="text31006" />
      <path
         style="font-size:12px;font-style:normal;font-weight:normal;writing-mode:tb-rl;fill:#ffffff;fill-opacity:1;stroke:none;stroke-width:1px;stroke-linecap:butt;stroke-linejoin:miter;stroke-opacity:1;font-family:Consolas"
         d="M 273.53937,865.55945 L 270.32843,872.26843 L 269.16241,872.26843 L 272.4964,865.55945 L 268.35968,865.55945 L 268.35968,864.61023 L 273.53937,864.61023 L 273.53937,865.55945 z "
         id="text31010" />
      <path
         style="font-size:12px;font-style:normal;font-weight:normal;writing-mode:tb-rl;fill:#ffffff;fill-opacity:1;stroke:none;stroke-width:1px;stroke-linecap:butt;stroke-linejoin:miter;stroke-opacity:1;font-family:Consolas"
         d="M 273.73566,898.34265 C 273.73565,898.69422 273.67217,899.02429 273.54523,899.33289 C 273.41827,899.64148 273.2376,899.91004 273.00323,900.13855 C 272.76885,900.36707 272.48663,900.54675 272.15656,900.67761 C 271.82647,900.80847 271.46026,900.8739 271.05792,900.8739 C 270.63604,900.8739 270.263,900.80652 269.93878,900.67175 C 269.61456,900.53699 269.34308,900.32996 269.12433,900.05066 C 268.90558,899.77136 268.73956,899.41882 268.62628,898.99304 C 268.513,898.56726 268.45636,898.06336 268.45636,897.48132 C 268.45636,897.0907 268.48175,896.7118 268.53253,896.3446 C 268.58331,895.97742 268.6673,895.63172 268.78448,895.3075 C 268.90167,894.98328 269.05792,894.68641 269.25323,894.41687 C 269.44855,894.14735 269.69171,893.9159 269.98273,893.72253 C 270.27374,893.52918 270.61651,893.37879 271.01105,893.27136 C 271.40557,893.16395 271.86261,893.11024 272.38214,893.11023 L 273.138,893.11023 L 273.138,894.00085 L 272.31769,894.00085 C 271.86065,894.00086 271.46417,894.05555 271.12823,894.16492 C 270.79229,894.2743 270.51104,894.4286 270.28448,894.62781 C 270.05792,894.82703 269.88409,895.06727 269.763,895.34851 C 269.6419,895.62977 269.56573,895.94422 269.53448,896.29187 L 269.51105,896.5321 C 269.75714,896.38758 270.04132,896.27137 270.36359,896.18347 C 270.68585,896.09559 271.03448,896.05164 271.40948,896.05164 C 271.7962,896.05164 272.13507,896.10828 272.42609,896.22156 C 272.7171,896.33484 272.95928,896.49207 273.15265,896.69324 C 273.346,896.89441 273.49151,897.13562 273.58917,897.41687 C 273.68682,897.69812 273.73565,898.00672 273.73566,898.34265 L 273.73566,898.34265 z M 272.66925,898.4071 C 272.66925,898.17273 272.64093,897.96082 272.58429,897.77136 C 272.52764,897.58191 272.43878,897.42176 272.31769,897.29089 C 272.19659,897.16004 272.04327,897.05848 271.85773,896.98621 C 271.67218,896.91394 271.4505,896.87781 271.19269,896.87781 C 271.04425,896.87781 270.89386,896.89148 270.74152,896.91882 C 270.58917,896.94617 270.43976,896.98426 270.29327,897.03308 C 270.14679,897.08191 270.00714,897.13758 269.87433,897.20007 C 269.74151,897.26258 269.62042,897.32898 269.51105,897.39929 C 269.51105,897.9032 269.5462,898.3241 269.61652,898.66199 C 269.68683,898.99988 269.79132,899.27039 269.92999,899.47351 C 270.06866,899.67664 270.23956,899.82117 270.44269,899.9071 C 270.64581,899.99304 270.88018,900.03601 271.14581,900.03601 C 271.36847,900.03601 271.57257,899.99988 271.75812,899.92761 C 271.94366,899.85535 272.10382,899.7489 272.23859,899.60828 C 272.37335,899.46765 272.47882,899.29675 272.55499,899.09558 C 272.63116,898.89441 272.66925,898.66492 272.66925,898.4071 L 272.66925,898.4071 z "
         id="text31014" />
      <path
         style="font-size:12px;font-style:normal;font-weight:normal;writing-mode:tb-rl;fill:#ffffff;fill-opacity:1;stroke:none;stroke-width:1px;stroke-linecap:butt;stroke-linejoin:miter;stroke-opacity:1;font-family:Consolas"
         d="M 273.38995,925.91473 C 273.38995,926.29364 273.30792,926.63934 273.14386,926.95184 C 272.97979,927.26434 272.75421,927.5329 272.4671,927.75751 C 272.17999,927.98212 271.84112,928.15692 271.4505,928.28192 C 271.05987,928.40692 270.638,928.46942 270.18488,928.46942 C 270.07159,928.46942 269.94952,928.46649 269.81866,928.46063 C 269.6878,928.45477 269.55792,928.44696 269.42902,928.43719 C 269.30011,928.42743 269.17413,928.41669 269.05109,928.40497 C 268.92804,928.39325 268.81769,928.37958 268.72003,928.36395 L 268.72003,927.43817 C 268.93097,927.48895 269.17218,927.52606 269.44366,927.5495 C 269.71515,927.57294 269.98956,927.58466 270.26691,927.58466 C 270.5794,927.58466 270.86065,927.54755 271.11066,927.47333 C 271.36065,927.39911 271.57354,927.29266 271.74933,927.15399 C 271.92511,927.01532 272.05987,926.84735 272.15363,926.65009 C 272.24737,926.45282 272.29425,926.23114 272.29425,925.98505 C 272.29425,925.50849 272.12335,925.16181 271.78156,924.94501 C 271.43975,924.72821 270.94854,924.61982 270.30792,924.61981 L 268.8548,924.61981 L 268.8548,920.70575 L 272.9798,920.70575 L 272.9798,921.59637 L 269.81573,921.59637 L 269.81573,923.74677 L 270.4837,923.74677 C 270.85089,923.74677 271.20831,923.77997 271.55597,923.84637 C 271.90362,923.91279 272.21319,924.029 272.48468,924.19501 C 272.75616,924.36103 272.97491,924.58368 273.14093,924.86298 C 273.30694,925.14228 273.38995,925.49286 273.38995,925.91473 L 273.38995,925.91473 z "
         id="text31018" />
      <path
         style="font-size:12px;font-style:normal;font-weight:normal;writing-mode:tb-rl;fill:#ffffff;fill-opacity:1;stroke:none;stroke-width:1px;stroke-linecap:butt;stroke-linejoin:miter;stroke-opacity:1;font-family:Consolas"
         d="M 274.18683,957.07507 L 272.88019,957.07507 L 272.88019,958.76843 L 271.83722,958.76843 L 271.83722,957.07507 L 268.15167,957.07507 L 268.15167,956.17859 L 271.41534,951.11023 L 272.88019,951.11023 L 272.88019,956.17859 L 274.18683,956.17859 L 274.18683,957.07507 z M 271.83722,952.0946 L 269.1712,956.17859 L 271.83722,956.17859 L 271.83722,952.0946 z "
         id="text31022" />
      <path
         style="font-size:12px;font-style:normal;font-weight:normal;writing-mode:tb-rl;fill:#000000;fill-opacity:1;stroke:none;stroke-width:1px;stroke-linecap:butt;stroke-linejoin:miter;stroke-opacity:1;font-family:Consolas"
         d="M 273.46613,988.70673 C 273.46612,989.04267 273.39776,989.35809 273.26105,989.65302 C 273.12432,989.94794 272.91925,990.20575 272.64581,990.42645 C 272.37237,990.64716 272.02862,990.82098 271.61456,990.94794 C 271.2005,991.07489 270.71808,991.13837 270.1673,991.13837 C 269.86261,991.13837 269.58917,991.1286 269.34698,991.10907 C 269.1048,991.08954 268.87823,991.06415 268.6673,991.0329 L 268.6673,990.11884 C 268.90948,990.16181 269.16534,990.19501 269.43488,990.21844 C 269.7044,990.24188 269.9798,990.2536 270.26105,990.2536 C 270.64386,990.2536 270.97101,990.21942 271.24249,990.15106 C 271.51397,990.0827 271.73565,989.98407 271.90753,989.85516 C 272.0794,989.72626 272.2044,989.57001 272.28253,989.38641 C 272.36065,989.20282 272.39971,988.99579 272.39972,988.76532 C 272.39971,988.55438 272.35284,988.37079 272.25909,988.21454 C 272.16534,988.05829 272.0335,987.92743 271.86359,987.82196 C 271.69366,987.7165 271.49054,987.63739 271.25421,987.58466 C 271.01788,987.53192 270.75909,987.50556 270.47784,987.50555 L 269.6048,987.50555 L 269.6048,986.66766 L 270.48956,986.66766 C 270.72003,986.66767 270.92999,986.63739 271.11945,986.57684 C 271.3089,986.5163 271.471,986.42939 271.60577,986.3161 C 271.74054,986.20282 271.84405,986.06318 271.91632,985.89716 C 271.98858,985.73115 272.02471,985.54267 272.02472,985.33173 C 272.02471,984.92158 271.89972,984.62275 271.64972,984.43524 C 271.39972,984.24775 271.03253,984.154 270.54816,984.15399 C 270.29034,984.154 270.02472,984.17939 269.75128,984.23016 C 269.47784,984.28095 269.18487,984.35712 268.87238,984.45868 L 268.87238,983.56805 C 269.00519,983.52119 269.14679,983.47919 269.29718,983.44208 C 269.44757,983.40498 269.59796,983.37373 269.74835,983.34833 C 269.89874,983.32294 270.04815,983.30341 270.19659,983.28973 C 270.34503,983.27607 270.48761,983.26923 270.62433,983.26923 C 271.03058,983.26923 271.388,983.31318 271.69659,983.40106 C 272.00518,983.48896 272.263,983.61494 272.47003,983.77899 C 272.67706,983.94306 272.83331,984.14228 272.93878,984.37665 C 273.04425,984.61103 273.09698,984.8747 273.09698,985.16766 C 273.09698,985.60517 272.98467,985.97236 272.76007,986.26923 C 272.53546,986.56611 272.22784,986.80243 271.83722,986.97821 C 272.03643,987.00946 272.23272,987.07196 272.42609,987.16571 C 272.61944,987.25946 272.79327,987.37958 272.94757,987.52606 C 273.10186,987.67255 273.22686,987.8454 273.32257,988.04462 C 273.41827,988.24384 273.46612,988.46454 273.46613,988.70673 L 273.46613,988.70673 z "
         id="text31026" />
      <path
         style="font-size:12px;font-style:normal;font-weight:normal;writing-mode:tb-rl;fill:#000000;fill-opacity:1;stroke:none;stroke-width:1px;stroke-linecap:butt;stroke-linejoin:miter;stroke-opacity:1;font-family:Consolas"
         d="M 273.73273,1014.2781 L 268.68781,1014.2781 L 268.68781,1013.3641 L 270.66827,1011.3953 C 270.99249,1011.075 271.25616,1010.7977 271.45929,1010.5633 C 271.66241,1010.3289 271.82061,1010.1151 271.9339,1009.9217 C 272.04718,1009.7283 272.12335,1009.5457 272.16241,1009.3738 C 272.20147,1009.202 272.221,1009.0164 272.22101,1008.8172 C 272.221,1008.6297 272.19561,1008.451 272.14484,1008.2811 C 272.09405,1008.1112 272.01593,1007.9617 271.91046,1007.8328 C 271.80499,1007.7039 271.66827,1007.6024 271.50031,1007.5281 C 271.33233,1007.4539 271.13116,1007.4168 270.89679,1007.4168 C 270.57257,1007.4168 270.27765,1007.4891 270.01202,1007.6336 C 269.7464,1007.7781 269.50226,1007.9656 269.2796,1008.1961 L 268.7171,1007.5223 C 269.00616,1007.2176 269.33917,1006.9735 269.71613,1006.7899 C 270.09308,1006.6063 270.53155,1006.5145 271.03156,1006.5145 C 271.3714,1006.5145 271.68097,1006.5653 271.96027,1006.6668 C 272.23956,1006.7684 272.48077,1006.9149 272.6839,1007.1063 C 272.88702,1007.2977 273.04425,1007.5321 273.15558,1007.8094 C 273.2669,1008.0867 273.32257,1008.3992 273.32257,1008.7469 C 273.32257,1009.0399 273.2835,1009.3113 273.20538,1009.5613 C 273.12725,1009.8113 273.00909,1010.0604 272.85089,1010.3084 C 272.69268,1010.5565 272.49346,1010.8133 272.25323,1011.0789 C 272.013,1011.3445 271.72882,1011.6356 271.4007,1011.952 L 270.01202,1013.3055 L 273.73273,1013.3055 L 273.73273,1014.2781 z "
         id="text31030" />
      <path
         style="font-size:12px;font-style:normal;font-weight:normal;writing-mode:tb-rl;fill:#000000;fill-opacity:1;stroke:none;stroke-width:1px;stroke-linecap:butt;stroke-linejoin:miter;stroke-opacity:1;font-family:Consolas"
         d="M 273.97589,1042.168 L 269.16534,1042.168 L 269.16534,1041.2188 L 271.13409,1041.2188 L 271.13409,1035.6289 L 269.30011,1036.625 L 268.92511,1035.7578 L 271.36261,1034.4746 L 272.26495,1034.4746 L 272.26495,1041.2188 L 273.97589,1041.2188 L 273.97589,1042.168 z "
         id="text31034" />
    </g>
  </g>
</svg>
