<?xml version="1.0" encoding="UTF-8" standalone="no"?>
<svg
   xmlns:dc="http://purl.org/dc/elements/1.1/"
   xmlns:cc="http://creativecommons.org/ns#"
   xmlns:rdf="http://www.w3.org/1999/02/22-rdf-syntax-ns#"
   xmlns:svg="http://www.w3.org/2000/svg"
   xmlns="http://www.w3.org/2000/svg"
   xmlns:sodipodi="http://sodipodi.sourceforge.net/DTD/sodipodi-0.dtd"
   xmlns:inkscape="http://www.inkscape.org/namespaces/inkscape"
   version="1.1"
   width="152.356pt"
   height="265pt"
   viewBox="0 0 595.4453 841.88967"
   id="svg3795"
   sodipodi:docname="TargetBR100m-scaled.svg"
   inkscape:export-filename="C:\Users\Brjgn\Downloads\TargetBR100m.png"
   inkscape:export-xdpi="25.370001"
   inkscape:export-ydpi="25.370001"
   inkscape:version="0.92.4 (5da689c313, 2019-01-14)">
  <metadata
     id="metadata3801">
    <rdf:RDF>
      <cc:Work
         rdf:about="">
        <dc:format>image/svg+xml</dc:format>
        <dc:type
           rdf:resource="http://purl.org/dc/dcmitype/StillImage" />
        <dc:title />
      </cc:Work>
    </rdf:RDF>
  </metadata>
  <defs
     id="defs3799" />
  <sodipodi:namedview
     pagecolor="#ffffff"
     bordercolor="#666666"
     borderopacity="1"
     objecttolerance="10"
     gridtolerance="10"
     guidetolerance="10"
     inkscape:pageopacity="0"
     inkscape:pageshadow="2"
     inkscape:window-width="1680"
     inkscape:window-height="987"
     id="namedview3797"
     showgrid="false"
     inkscape:zoom="1.4574357"
     inkscape:cx="79.79493"
     inkscape:cy="120.00291"
     inkscape:window-x="-8"
     inkscape:window-y="-8"
     inkscape:window-maximized="1"
     inkscape:current-layer="layer1" />
  <g
     inkscape:groupmode="layer"
     id="layer1"
     inkscape:label="Layer 1">
    <rect
       id="rect3846"
       width="337.18768"
       height="449.08691"
       x="134.56941"
       y="447.9194"
       style="fill:#ffffff;fill-opacity:1;stroke-width:5.36524725" />
    <rect
       id="rect3846-3"
       width="337.18768"
       height="449.08612"
       x="134.56941"
       y="-55.109756"
       style="fill:#ffffff;fill-opacity:1;stroke-width:5.36524248" />
  </g>
  <g
     id="g3793"
     transform="matrix(1.2998171,0,0,1.2998171,-83.899505,-127.58986)"
     style="enable-background:new">
    <g
       id="g3791">
      <g
         id="Layer-1"
         data-name="DocumentSetup" />
      <g
         id="g3789"
         data-name="Layer">
        <path
           transform="matrix(1,0,0,-1,0,841.88967)"
           stroke-miterlimit="10"
           d="m 369.91603,216.13184 -0.0273,1.87109 -0.0576,1.8418 -0.1123,1.8418 -0.1416,1.78613 -0.19922,1.78418 -0.22559,1.75879 -0.56738,3.48535 -0.36817,1.72851 -0.39745,1.70118 -0.42481,1.70019 -0.4541,1.64258 -0.53809,1.67285 -0.53808,1.61524 -0.59571,1.61621 -0.62207,1.58691 -1.41796,3.14551 -0.76465,1.55859 -0.79395,1.53028 -0.85058,1.53125 -0.87891,1.47265 -0.93457,1.47461 -0.96289,1.44531 -1.02051,1.47364 -1.0498,1.417 -2.20899,2.80566 -1.19043,1.38865 -1.1914,1.33205 -1.2461,1.33204 -1.27539,1.30371 -2.01269,1.95605 -1.02051,0.93455 -0.99219,0.87795 -1.04787,0.9082 -1.01951,0.84961 -2.09863,1.61621 -2.15332,1.58593 -2.18165,1.4453 -2.21093,1.3887 -1.13379,0.65234 -1.10449,0.5957 -2.2959,1.21875 -2.32422,1.07617 -2.37988,1.02051 -2.38184,0.87793 -1.24609,0.4541 -1.21778,0.39649 -2.46582,0.70801 -2.52246,0.65234 -1.27539,0.2832 -1.24805,0.22656 -1.78418,0.34083 -1.75781,0.25487 -1.81347,0.25587 -1.78614,0.16992 -1.84179,0.16895 -1.84278,0.085 -1.86914,0.085 h -1.84228 l -3.76956,-0.085 -3.65574,-0.25391 -3.59912,-0.42579 -3.48584,-0.5957 -2.5791,-0.50976 -2.52197,-0.65234 -2.49414,-0.70801 -2.40919,-0.85059 -2.437,-0.87793 -2.35205,-1.02051 -2.32422,-1.07617 -2.26709,-1.21875 -2.26709,-1.24804 -2.21045,-1.3887 -2.18262,-1.4453 -2.1255,-1.58593 -2.12548,-1.61621 -2.04053,-1.75781 -2.04053,-1.8125 -1.95508,-1.95605 -2.5791,-2.63575 -1.21875,-1.33205 -1.16162,-1.38865 -2.23926,-2.80566 -1.04834,-1.417 -0.99219,-1.47364 -1.89843,-2.91992 -0.90723,-1.47265 -0.82178,-1.53125 -1.55859,-3.08887 -1.38867,-3.14551 -1.2754,-3.20312 -0.56689,-1.61524 -0.48144,-1.67285 -0.48194,-1.64258 -0.42529,-1.70019 -0.70849,-3.42969 -0.59522,-3.48535 -0.39648,-3.54297 -0.16993,-1.78613 -0.0854,-1.8418 -0.0567,-3.71289 v -1.81348 l 0.0567,-1.84179 0.0854,-1.81446 0.16993,-1.81347 0.16992,-1.75782 0.22656,-1.78418 0.25537,-1.72949 0.33985,-1.75781 0.31201,-1.7002 0.39648,-1.70019 0.42529,-1.67188 0.48194,-1.70117 0.48144,-1.61426 0.56689,-1.6455 0.59522,-1.61524 0.68018,-1.61426 0.65185,-1.55859 0.73682,-1.55859 0.73682,-1.53028 0.82177,-1.56054 0.82178,-1.47266 0.90723,-1.50293 0.90673,-1.47363 0.9917,-1.50098 0.99219,-1.41699 1.04834,-1.44531 1.07715,-1.417 1.16211,-1.41699 1.16162,-1.36133 1.21875,-1.35937 1.24707,-1.33301 1.33203,-1.35937 1.30323,-1.27637 1.33203,-1.24707 1.33203,-1.19043 1.38867,-1.18946 2.80566,-2.21191 1.417,-1.04687 1.47362,-1.02051 1.4458,-0.96485 1.47365,-0.93457 1.47363,-0.8789 1.53028,-0.85059 1.53027,-0.79199 1.55857,-0.7666 3.146,-1.41602 1.58693,-0.62403 1.61573,-0.59472 1.61523,-0.53906 1.67188,-0.53809 1.64403,-0.4541 1.7002,-0.4248 1.70069,-0.39649 1.72851,-0.36816 3.48584,-0.56641 1.75733,-0.22754 1.78513,-0.19921 1.78567,-0.14161 1.8418,-0.11328 1.84228,-0.0557 1.87061,-0.0283 1.81298,0.0283 1.8418,0.0557 1.81543,0.11328 1.8125,0.14161 1.75683,0.19921 1.78614,0.22754 1.72852,0.28321 1.75781,0.2832 1.70019,0.36816 1.7002,0.39649 0.82129,0.22754 0.85155,0.19726 1.69923,0.4541 0.79492,0.28321 0.39551,0.1416 0.4248,0.11328 1.64453,0.53906 0.79297,0.31055 0.82129,0.28417 1.64551,0.62403 0.36719,0.19727 0.39648,0.16992 0.79492,0.34082 0.36719,0.19922 0.39649,0.16894 0.79394,0.33985 1.53027,0.7666 1.5586,0.79199 1.47363,0.85059 0.73828,0.4541 0.36719,0.22559 0.39746,0.19921 1.47266,0.93457 1.50194,0.96485 1.41798,1.02051 0.33982,0.2832 0.36916,0.25488 0.73633,0.50879 1.41601,1.10645 1.41798,1.10546 1.35937,1.18946 1.36133,1.19043 1.33202,1.24707 1.36036,1.27637 1.27539,1.35937 1.2461,1.33301 1.1914,1.35937 1.19043,1.36133 1.10547,1.41699 1.10352,1.417 0.51172,0.73632 0.25488,0.36817 0.2832,0.34082 1.02051,1.41699 0.96289,1.50098 0.93457,1.47363 0.19922,0.39746 0.22754,0.36914 0.45215,0.73633 0.85058,1.47266 0.79395,1.56054 0.76465,1.53028 0.33984,0.79199 0.1709,0.39745 0.19823,0.36915 0.33985,0.79199 0.1709,0.39844 0.19824,0.36816 0.62207,1.61426 0.28321,0.82324 0.3125,0.792 0.53808,1.6455 0.11329,0.42481 0.14256,0.39648 0.28224,0.79297 0.4541,1.70117 0.19922,0.85059 0.22559,0.82129 0.39745,1.70019 0.36817,1.7002 0.28418,1.75781 0.2832,1.72949 0.22559,1.78418 0.19922,1.75782 0.1416,1.81347 0.1123,1.81446 0.0576,1.84179 0.0273,1.81348"
           id="path3714"
           inkscape:connector-curvature="0"
           style="fill:none;stroke:#231f20;stroke-width:3.00409007;stroke-linecap:square;stroke-linejoin:miter;stroke-miterlimit:10" />
        <path
           transform="matrix(1,0,0,-1,0,841.88967)"
           stroke-miterlimit="10"
           d="m 272.7954,241.32715 -0.96385,-0.93555 -0.87841,-0.99218 -0.87844,-0.99219 -0.76561,-1.02051 -0.79345,-1.01855 -0.7085,-1.07813 -1.27539,-2.18262 -0.59475,-1.10449 -0.53855,-1.13379 -0.51026,-1.13281 -0.4248,-1.19141 -0.42529,-1.1621 -0.34034,-1.21778 -0.31152,-1.21972 -0.25488,-1.2754 -0.34033,-1.78418 -0.19825,-1.87109 -0.1416,-1.89941 v -1.9541 l -0.0283,-0.93653 0.0283,-0.96387 0.1416,-1.89844 0.19825,-1.84277 0.1416,-0.90527 0.19873,-0.93652 0.25488,-1.21778 0.31152,-1.21972 0.34034,-1.19044 0.42529,-1.21777 0.4248,-1.13379 0.51026,-1.1621 0.53855,-1.13379 0.59475,-1.13282 0.59521,-1.07813 0.68018,-1.07616 0.7085,-1.04884 0.79345,-1.04784 0.76561,-0.99219 0.87844,-1.02051 0.87841,-0.99121 0.96385,-0.99219 1.04836,-0.99218 1.07664,-0.96485 1.10549,-0.90527 1.13379,-0.87891 1.1333,-0.79395 1.16211,-0.76464 1.19041,-0.70996 1.21828,-0.65137 1.21875,-0.59473 1.24707,-0.53906 1.27539,-0.48047 1.33201,-0.45508 1.30373,-0.36816 1.36035,-0.36719 1.36036,-0.2832 1.41699,-0.25684 1.33203,-0.14062 1.38867,-0.14258 1.41697,-0.085 1.47366,-0.0283 0.68017,0.0283 h 0.70897 l 1.41603,0.085 1.36133,0.14258 1.41699,0.14062 1.36035,0.25684 1.36036,0.2832 0.31152,0.11231 0.33887,0.0849 0.68065,0.16993 0.3125,0.11328 0.33985,0.0859 0.67969,0.16894 1.27539,0.45508 1.30371,0.48047 1.24706,0.53906 1.2461,0.59473 1.1914,0.65137 1.18947,0.70996 1.13379,0.76464 1.1621,0.79395 0.53809,0.45215 0.56641,0.42676 1.10547,0.90527 1.07812,0.96485 1.07615,0.99218 0.59475,0.67969 0.625,0.65137 1.19043,1.36133 0.11328,0.19726 0.1416,0.16992 0.2832,0.34082 0.53809,0.67969 1.04883,1.41699 0.90625,1.47461 0.87793,1.47364 0.7666,1.53027 0.70801,1.5293 0.2832,0.82226 0.3125,0.79492 0.11328,0.42481 0.1416,0.39551 0.28321,0.79492 0.4248,1.64258 0.19922,0.85058 0.0283,0.22656 0.0557,0.19825 0.11329,0.39648 0.0576,0.4541 0.0273,0.22754 0.0567,0.19727 0.1416,0.85058 0.22754,1.75684 0.0557,0.9082 0.0576,0.87793 0.084,1.81446 -0.084,1.87011 -0.11328,1.78418 -0.22754,1.78711 -0.2832,1.7002 -0.39649,1.70019 -0.4248,1.64258 -0.53809,1.64453 -0.5957,1.5586 -0.70801,1.58691 -0.7666,1.50293 -0.87793,1.50195 -0.90625,1.44531 -1.04883,1.44532 -1.07617,1.36034 -1.19043,1.36036 -1.21975,1.27539 -1.1328,1.10449 -1.10644,0.99219 -0.59472,0.51074 -0.56738,0.45313 -1.16116,0.8789 -1.21775,0.87793 -1.21975,0.76563 -1.27537,0.70898 -1.24707,0.65137 -0.67969,0.34082 -0.65137,0.2832 -1.3047,0.53809 -1.36033,0.48145 -1.36037,0.42578 -1.416,0.36816 -1.41797,0.31152 -1.47265,0.25489 -1.44532,0.19922 -1.13476,0.1416 -1.10547,0.0557 -2.20947,0.0566 -2.2959,-0.0566 -2.21046,-0.19726 -1.50194,-0.19922 -1.44532,-0.25489 -1.44531,-0.31152 -1.38867,-0.36816 -1.38867,-0.42578 -1.36035,-0.48145 -1.33204,-0.53809 -1.2754,-0.62402 -1.3037,-0.65137 -1.2466,-0.70898 -1.24705,-0.76563 -1.19045,-0.87793 -1.19041,-0.8789 -1.16162,-0.96387 -1.13379,-0.99219 -1.07668,-1.10449"
           id="path3716"
           inkscape:connector-curvature="0"
           style="fill:none;stroke:#231f20;stroke-width:3.00409007;stroke-linecap:square;stroke-linejoin:miter;stroke-miterlimit:10" />
        <path
           transform="matrix(1,0,0,-1,0,841.88967)"
           stroke-miterlimit="10"
           d="m 297.98976,270.40528 -2.80567,-0.0566 -2.7207,-0.1709 -2.69239,-0.31154 -2.60742,-0.4531 -2.60742,-0.53907 -2.52197,-0.67968 -2.46582,-0.79297 -2.40869,-0.96485 -2.40918,-1.0205 -2.29541,-1.18946 -2.29541,-1.30371 -2.18213,-1.44531 -2.18262,-1.53027 -2.09717,-1.67288 -2.06886,-1.81345 -1.9834,-1.95509 -1.95555,-1.98437 -1.81397,-2.06836 -1.7002,-2.09766 -1.53027,-2.18164 -1.44581,-2.18262 -1.30321,-2.29589 -1.19043,-2.2959 -1.02051,-2.40918 -0.96338,-2.40821 -0.79346,-2.46679 -0.68017,-2.52051 -0.53858,-2.6084 -0.45361,-2.60743 -0.31152,-2.69237 -0.16993,-2.74805 -0.0283,-2.80664 -0.0283,-1.35938 0.0566,-1.38964 0.0566,-1.35938 0.11328,-1.38867 0.31152,-2.66504 0.19873,-1.30371 0.25488,-1.33106 0.22657,-1.27539 0.31201,-1.30371 0.31152,-1.24804 0.36865,-1.2754 0.36817,-1.21777 0.42529,-1.24805 0.96338,-2.4375 0.48193,-1.16211 0.53858,-1.18945 1.19043,-2.32422 0.62353,-1.10449 0.67968,-1.13379 0.68019,-1.10547 0.76562,-1.13477 1.53027,-2.15234 0.82178,-1.04882 0.87842,-1.07813 0.87842,-1.01953 0.93555,-1.04785 1.95555,-2.04199 0.9634,-0.9629 1.02,-0.93554 2.06886,-1.81446 2.09717,-1.64257 2.18262,-1.58692 2.18213,-1.41699 2.29541,-1.30371 1.13379,-0.5957 1.16162,-0.56641 2.40918,-1.07812 2.40869,-0.90528 1.21873,-0.42578 1.24709,-0.39648 2.52197,-0.68164 2.60742,-0.56641 1.30372,-0.22559 1.3037,-0.19922 2.69239,-0.34082 2.7207,-0.16894 1.38867,-0.0576 1.417,-0.0283 1.35984,0.0283 1.38869,0.0576 1.36035,0.084 0.68066,0.0576 0.33985,0.0273 h 0.36914 l 2.66406,0.34082 1.30371,0.19922 1.33104,0.22559 1.2754,0.2832 1.30274,0.28321 1.24805,0.34179 1.27539,0.33985 1.21778,0.39648 1.24707,0.42578 2.4375,0.90528 0.5664,0.2832 0.28321,0.1416 0.3125,0.11523 1.19042,0.53809 1.13379,0.56641 1.18945,0.5957 2.26856,1.30371 0.25391,0.19727 0.2832,0.16992 0.56738,0.34082 1.13282,0.70898 2.15429,1.58692 0.50977,0.42382 0.54004,0.39844 1.07519,0.82031 1.02051,0.90821 1.04981,0.90625 1.01952,0.93554 1.01954,0.9629 0.96484,1.0205 0.93457,1.02149 0.90723,1.04785 0.90625,1.01953 0.82324,1.07813 0.39649,0.5371 0.4248,0.51172 1.58691,2.15234 0.70899,1.13477 0.33887,0.56739 0.16992,0.2832 0.19922,0.25488 0.65233,1.13379 0.31056,0.56641 0.34082,0.53808 0.5957,1.19043 0.56542,1.13379 0.54005,1.18945 0.1123,0.31153 0.14161,0.28418 0.2832,0.5664 0.9082,2.4375 0.42481,1.24805 0.39648,1.21777 0.33984,1.2754 0.33985,1.24804 0.2832,1.30371 0.2832,1.27539 0.22656,1.33106 0.19825,1.30371 0.34082,2.66504 v 0.36816 l 0.0293,0.33985 0.0566,0.68066 0.085,1.35938 0.0557,1.38964 0.0283,1.35938 -0.0283,1.41699 -0.0557,1.38965 -0.1709,2.74805 -0.34082,2.69237 -0.19825,1.30372 -0.22656,1.30371 -0.5664,2.6084 -0.67969,2.52051 -0.39648,1.24706 -0.42481,1.21973 -0.9082,2.40821 -1.07716,2.40918 -0.56542,1.16211 -0.5957,1.13379 -1.30371,2.29589 -1.417,2.18262 -1.58691,2.18164 -1.64453,2.09766 -1.81348,2.06836 -0.93457,1.0205 -0.96484,0.96387 -2.03906,1.95509 -1.04981,0.93554 -1.02051,0.87791 -1.07519,0.87893 -1.04981,0.79395 -2.15429,1.53027 -1.13282,0.76562 -1.10449,0.67969 -2.26856,1.30371 -2.32324,1.18946 -1.19042,0.53906 -1.16211,0.48144 -2.4375,0.96485 -1.24707,0.42382 -1.21778,0.36915 -1.27539,0.36815 -1.24805,0.31153 -1.30274,0.31153 -1.2754,0.22754 -1.33104,0.25488 -1.30371,0.19822 -2.66406,0.31154 -1.38965,0.11329 -1.36035,0.0576 -1.38869,0.0566 h -1.35984"
           id="path3718"
           inkscape:connector-curvature="0"
           style="fill:none;stroke:#231f20;stroke-width:3.00409007;stroke-linecap:square;stroke-linejoin:miter;stroke-miterlimit:10" />
        <path
           transform="matrix(1,0,0,-1,0,841.88967)"
           stroke-miterlimit="10"
           d="m 271.7749,302.40235 -3.9961,-1.27539 -1.98387,-0.70898 -1.92676,-0.76563 -3.82617,-1.67187 -1.89892,-0.87793 -1.8418,-0.99219 -1.87061,-0.99219 -1.81397,-1.04882 -1.81347,-1.1045 -1.75733,-1.16211 -1.78516,-1.1621 -1.729,-1.2754 -1.72851,-1.27539 -1.67237,-1.38965 -1.9834,-1.61425 -1.92724,-1.72949 -1.89893,-1.78516 -1.8706,-1.8711 -2.23877,-2.23925 -2.12549,-2.32325 -2.04053,-2.35156 -1.89892,-2.4375 -1.8418,-2.40918 -1.72901,-2.49416 -1.64355,-2.52244 -1.50195,-2.60742 -1.47364,-2.5791 -1.33203,-2.66407 -1.24707,-2.69238 -1.13379,-2.74903 -1.07666,-2.74902 -0.93554,-2.83399 -0.8501,-2.8623 -0.73682,-2.91992 -0.62353,-2.60645 -0.50977,-2.69336 -0.45362,-2.69238 -0.34032,-2.77637 -0.28321,-2.74902 -0.19824,-2.83398 -0.11328,-2.83497 -0.0283,-2.91796 0.0283,-2.86329 0.11328,-2.83398 0.19824,-2.80664 0.11328,-1.3877 0.16993,-1.41699 0.14209,-1.36133 0.19823,-1.38867 0.45362,-2.7207 0.22656,-1.33204 0.28321,-1.35937 0.62353,-2.66406 0.62354,-2.4375 0.70849,-2.43652 0.76514,-2.40918 0.8501,-2.38184 0.90722,-2.32422 0.9917,-2.32226 0.51026,-1.13379 0.56689,-1.16211 1.16162,-2.2959 1.19043,-2.21191 1.27539,-2.20899 0.65186,-1.07812 0.70849,-1.1045 1.44532,-2.15429 1.47363,-2.09668 1.55859,-2.09864 0.79346,-1.01855 0.85059,-1.04883 1.72851,-2.07031 2.06885,-2.35059 1.07715,-1.16211 1.1333,-1.1914 0.76514,-0.67969 2.69238,-2.6084 1.38867,-1.27441 1.41699,-1.2461 1.38867,-1.1914 1.44532,-1.16211 1.44531,-1.13379 1.47412,-1.10449 2.83399,-1.9834 1.44531,-0.96485 1.47363,-0.93554 1.47363,-0.87793 1.50196,-0.85059 3.03223,-1.64258 3.0327,-1.47461 1.5586,-0.708 1.5869,-0.67969 1.58743,-0.625 1.61523,-0.59473 3.25928,-1.13379 1.61523,-0.48242 1.64356,-0.45215 3.37256,-0.85156 1.70068,-0.36816 1.70019,-0.33887 3.48584,-0.62403 1.729,-0.22754 1.75684,-0.19726 3.5708,-0.34082 1.78565,-0.11328 1.81348,-0.084 1.84228,-0.0576 1.87061,-0.0283 1.81298,0.0283 1.8418,0.0576 0.87891,0.0557 0.9082,0.0283 1.8125,0.11328 1.75781,0.16992 1.78514,0.1709 1.75686,0.19726 1.78613,0.22754 1.69921,0.3125 0.85157,0.16993 0.4248,0.085 0.45411,0.0566 1.70019,0.33887 0.84961,0.19922 0.87792,0.16894 3.34376,0.85156 1.64551,0.45215 0.39648,0.14356 0.42481,0.11328 0.84961,0.22558 1.58789,0.56641 1.61523,0.56738 1.58594,0.59473 1.61523,0.625 1.53124,0.67969 1.5879,0.708 1.53028,0.73731 1.55859,0.7373 0.73533,0.42481 0.76565,0.39648 1.53125,0.82129 1.47265,0.85059 0.73731,0.45312 0.36814,0.22754 0.3965,0.19727 0.33985,0.25488 0.37012,0.22852 0.73533,0.45214 1.47365,0.96485 2.8916,1.9834 1.41602,1.10449 1.44629,1.13379 1.41699,1.16211 1.44531,1.1914 1.3877,1.2461 1.41699,1.27441 1.36133,1.30469 1.38867,1.30371 1.8418,1.92676 1.81445,1.92773 1.72754,1.9834 1.67383,1.9834 1.55859,2.04101 1.5293,2.04102 1.44531,2.09668 1.41699,2.09668 1.58789,2.66504 0.73633,1.35937 0.36817,0.68067 0.39745,0.65234 0.68067,1.3877 0.70801,1.36133 0.1416,0.36816 0.16895,0.34082 0.33984,0.67969 0.65233,1.35937 1.19044,2.83594 0.25489,0.73535 0.2832,0.70996 0.54004,1.41699 0.99121,2.89063 0.4541,1.47266 0.45215,1.44531 0.76562,3.00488 0.34082,1.5293 0.33887,1.50293 0.56641,3.06054 0.22851,1.5586 0.25391,1.53125 0.33983,3.17383 0.0566,0.82226 0.0859,0.79297 0.14061,1.58691 0.16994,3.23145 0.0283,1.64258 v 0.82226 l 0.0293,0.79493 -0.0576,3.31543 -0.16994,3.23046 -0.2832,3.23145 -0.33983,3.14453 -0.48242,3.14648 -0.56641,3.06055 -0.67969,3.0332 -0.76562,2.94727 -0.90625,2.97559 -0.99121,2.89062 -1.07813,2.86231 -1.19044,2.77832 -1.30272,2.80468 -1.38868,2.69237 -1.50195,2.69338 -1.58789,2.60645 -1.41699,2.1543 -1.44531,2.06933 -1.5293,2.06834 -1.55859,2.01174 -1.67383,2.0127 -1.72754,1.95605 -1.81445,1.95508 -1.8418,1.89843 -1.92775,1.8711 -1.92674,1.78516 -1.95508,1.72949 -1.92773,1.61425 -1.61426,1.2754 -1.58692,1.21875 -1.61621,1.1914 -1.61621,1.10449 -1.6709,1.10546 -1.67187,1.01954 -1.70118,1.02051 -1.67284,0.93555 -1.75686,0.93555 -1.72752,0.84961 -1.75781,0.85058 -1.75781,0.76563 -1.8125,0.76463 -1.81348,0.68068 -1.8418,0.68066 -1.81543,0.59375"
           id="path3720"
           inkscape:connector-curvature="0"
           style="fill:none;stroke:#231f20;stroke-width:3.00409007;stroke-linecap:square;stroke-linejoin:miter;stroke-miterlimit:10" />
        <path
           transform="matrix(1,0,0,-1,0,841.88967)"
           stroke-miterlimit="10"
           d="m 286.54005,227.61035 -0.62355,-0.5664 -0.53807,-0.625 -0.96387,-1.27442 -0.82178,-1.333 -0.36865,-0.67969 -0.2832,-0.73731 -0.53858,-1.44531 -0.36816,-1.55859 -0.1416,-0.76465 -0.0854,-0.82227 -0.0283,-1.67187 -0.0283,-0.79297 0.0566,-0.82324 0.0854,-0.79199 0.1416,-0.79493 0.1416,-0.73535 0.22656,-0.76562 0.22705,-0.73731 0.31153,-0.76563 0.2832,-0.68066 0.36865,-0.708 0.36866,-0.65137 0.45312,-0.68067 0.45361,-0.62304 0.51026,-0.65235 0.53807,-0.62207 0.62355,-0.625 0.56689,-0.5664 0.62354,-0.53809 1.27539,-0.96289 0.65183,-0.42578 0.6802,-0.39746 0.68018,-0.33887 0.73681,-0.34082 1.44531,-0.50976 0.7368,-0.19922 0.79348,-0.16993 0.76512,-0.11328 0.82179,-0.1123 0.82178,-0.0576 0.85059,-0.0283 0.79344,0.0283 0.82228,0.0576 0.79297,0.1123 0.79295,0.11328 0.7383,0.16993 0.36816,0.11328 0.39551,0.0859 0.73828,0.25488 0.16992,0.084 0.19727,0.0576 0.39646,0.11328 0.68166,0.34082 0.70801,0.33887 0.65137,0.39746 0.67969,0.42578 0.62402,0.48047 0.0576,0.0859 0.084,0.0557 0.1709,0.11328 0.33885,0.22754 0.62404,0.53809 0.65136,0.5664 0.5664,0.625 0.54005,0.62207 0.22559,0.34082 0.11326,0.16993 0.0567,0.084 0.0859,0.0576 0.48144,0.62304 0.42481,0.68067 0.39648,0.65137 0.34082,0.708 0.34082,0.68066 0.11328,0.39747 0.0566,0.19726 0.085,0.1709 0.2539,0.73731 0.0849,0.3955 0.11428,0.37012 0.16895,0.73535 0.11327,0.79493 0.11426,0.79199 0.0557,0.82324 0.0293,0.79297 -0.0293,0.84961 -0.0557,0.82226 -0.11426,0.82227 -0.11327,0.76465 -0.16895,0.79492 -0.19922,0.76367 -0.50879,1.44531 -0.34082,0.73731 -0.34082,0.67969 -0.39648,0.68164 -0.42481,0.65136 -0.96289,1.27442 -0.54005,0.625 -0.5664,0.5664 -0.65136,0.59571 -0.62404,0.53808 -0.65135,0.50879 -0.62402,0.4541 -0.67969,0.45411 -0.65137,0.36718 -0.70801,0.37012 -0.68166,0.2832 -0.76365,0.31153 -0.73828,0.22656 -0.76367,0.22559 -0.7383,0.1416 -0.79295,0.14257 -0.79297,0.0859 -0.82228,0.0566 h -0.79344 l -1.67237,-0.0566 -0.82179,-0.0859 -0.76512,-0.14257 -0.79348,-0.1416 -0.7368,-0.22559 -1.44531,-0.53809 -0.73681,-0.2832 -0.68018,-0.37012 -1.33203,-0.82129 -1.27539,-0.96289 -0.62354,-0.53808 -0.56689,-0.59571"
           id="path3722"
           inkscape:connector-curvature="0"
           style="fill:none;stroke:#231f20;stroke-width:4.9879899;stroke-linecap:square;stroke-linejoin:miter;stroke-miterlimit:10" />
        <path
           transform="matrix(1,0,0,-1,0,841.88967)"
           d="m 334.46388,344.99806 h -72.91992 v -72.9209 h 72.91992 v 72.9209 m -55.17871,-17.74121 h 37.37988 V 289.875 h -37.37988 z"
           id="path3724"
           inkscape:connector-curvature="0"
           style="fill:#231f20;fill-rule:evenodd" />
        <path
           transform="matrix(1,0,0,-1,0,841.88967)"
           stroke-miterlimit="10"
           d="m 261.54396,344.99806 v -72.9209 h 72.91992 v 72.9209 h -72.91992"
           id="path3726"
           inkscape:connector-curvature="0"
           style="fill:none;stroke:#231f20;stroke-width:2.0121901;stroke-linecap:square;stroke-linejoin:miter;stroke-miterlimit:10" />
        <path
           transform="matrix(1,0,0,-1,0,841.88967)"
           stroke-miterlimit="10"
           d="M 279.28517,327.25685 V 289.875 h 37.37988 v 37.38185 h -37.37988"
           id="path3728"
           inkscape:connector-curvature="0"
           style="fill:none;stroke:#231f20;stroke-width:2.0121901;stroke-linecap:square;stroke-linejoin:miter;stroke-miterlimit:10" />
        <path
           transform="matrix(1,0,0,-1,0,841.88967)"
           stroke-miterlimit="10"
           d="m 369.91603,613.5747 -0.0273,1.8701 -0.0576,1.8418 -0.1123,1.8428 -0.1416,1.78518 -0.19922,1.78512 -0.22559,1.7578 -0.56738,3.4854 -0.36817,1.72949 -0.39745,1.70019 -0.42481,1.7002 -0.4541,1.64352 -0.53809,1.6719 -0.53808,1.6162 -0.59571,1.6152 -0.62207,1.58697 -1.41796,3.14551 -0.76465,1.55859 -0.79395,1.53123 -0.85058,1.53029 -0.87891,1.47361 -0.93457,1.47366 -0.96289,1.44531 -1.02051,1.47363 -1.0498,1.417 -2.20899,2.80566 -1.19043,1.38864 -1.1914,1.33206 -1.2461,1.33204 -1.27539,1.3037 -2.01269,1.95606 -1.02051,0.93454 -0.99219,0.8789 -1.04787,0.90726 -1.01951,0.84961 -2.09863,1.61621 -2.15332,1.58692 -2.18165,1.4453 -2.21093,1.38868 -1.13379,0.65132 -1.10449,0.5957 -2.2959,1.2178 -2.32422,1.07717 -2.37988,1.02051 -2.38184,0.87792 -1.24609,0.4541 -1.21778,0.3965 -2.46582,0.708 -2.52246,0.6523 -1.27539,0.2832 -1.24805,0.2266 -1.78418,0.3408 -1.75781,0.2549 -1.81347,0.2549 -1.78614,0.1699 -1.84179,0.1699 -1.84278,0.085 -1.86914,0.085 h -1.84228 l -3.76956,-0.085 -3.65574,-0.2549 -3.59912,-0.4248 -3.48584,-0.5957 -2.5791,-0.5098 -2.52197,-0.6523 -2.49414,-0.708 -2.40919,-0.8506 -2.437,-0.87792 -2.35205,-1.02051 -2.32422,-1.07717 -2.26709,-1.2178 -2.26709,-1.24702 -2.21045,-1.38868 -2.18262,-1.4453 -2.1255,-1.58692 -2.12548,-1.61621 -2.04053,-1.75687 -2.04053,-1.81344 -1.95508,-1.95606 -2.5791,-2.63574 -1.21875,-1.33206 -1.16162,-1.38864 -2.23926,-2.80566 -1.04834,-1.417 -0.99219,-1.47363 -1.89843,-2.91897 -0.90723,-1.47361 -0.82178,-1.53029 -1.55859,-3.08982 -1.38867,-3.14551 -1.2754,-3.20217 -0.56689,-1.6162 -0.48144,-1.6719 -0.48194,-1.64352 -0.42529,-1.7002 -0.70849,-3.42968 -0.59522,-3.4854 -0.39648,-3.54292 -0.16993,-1.78518 -0.0854,-1.8428 -0.0567,-3.7119 v -1.81442 l 0.0567,-1.8418 0.0854,-1.81348 0.16993,-1.8145 0.16992,-1.7568 0.22656,-1.78514 0.25537,-1.72949 0.33985,-1.75687 0.31201,-1.7002 0.39648,-1.70113 0.42529,-1.67188 0.48194,-1.70019 0.48144,-1.61524 0.56689,-1.64456 0.59522,-1.6152 0.68018,-1.61524 0.65185,-1.55859 0.73682,-1.5586 0.73682,-1.53027 0.82177,-1.5596 0.82178,-1.4736 0.90723,-1.502 0.90673,-1.4736 0.9917,-1.50194 0.99219,-1.41699 1.04834,-1.44537 1.07715,-1.41694 1.16211,-1.41699 1.16162,-1.36037 1.21875,-1.36033 1.24707,-1.33207 1.33203,-1.36032 1.30323,-1.27539 1.33203,-1.24709 1.33203,-1.19041 1.38867,-1.19043 2.80566,-2.21096 1.417,-1.04783 1.47362,-1.0205 1.4458,-0.96387 1.47365,-0.9356 1.47363,-0.8779 1.53028,-0.8506 1.53027,-0.79293 1.55857,-0.76567 3.146,-1.417 1.58693,-0.623 1.61573,-0.5957 1.61523,-0.5381 1.67188,-0.5391 1.64403,-0.4531 1.7002,-0.4248 1.70069,-0.39744 1.72851,-0.36816 3.48584,-0.56641 1.75733,-0.22759 1.78513,-0.1982 1.78567,-0.1416 1.8418,-0.1133 1.84228,-0.0566 1.87061,-0.0283 1.81298,0.0283 1.8418,0.0566 1.81543,0.1133 1.8125,0.1416 1.75683,0.1982 1.78614,0.22759 1.72852,0.2832 1.75781,0.28321 1.70019,0.36816 1.7002,0.39744 0.82129,0.22658 0.85155,0.19822 1.69923,0.4531 0.79492,0.2832 0.39551,0.1426 0.4248,0.1133 1.64453,0.5381 0.79297,0.3115 0.82129,0.2842 1.64551,0.623 0.36719,0.19829 0.39648,0.16991 0.79492,0.3408 0.36719,0.19828 0.39649,0.16992 0.79394,0.3398 1.53027,0.76567 1.5586,0.79293 1.47363,0.8506 0.73828,0.4531 0.36719,0.2266 0.39746,0.1982 1.47266,0.9356 1.50194,0.96387 1.41798,1.0205 0.33982,0.28321 0.36916,0.25488 0.73633,0.50974 1.41601,1.10549 1.41798,1.10547 1.35937,1.19043 1.36133,1.19041 1.33202,1.24709 1.36036,1.27539 1.27539,1.36032 1.2461,1.33207 1.1914,1.36033 1.19043,1.36037 1.10547,1.41699 1.10352,1.41694 0.51172,0.73638 0.25488,0.36912 0.2832,0.33987 1.02051,1.41699 0.96289,1.50194 0.93457,1.4736 0.19922,0.3975 0.22754,0.36817 0.45215,0.73633 0.85058,1.4736 0.79395,1.5596 0.76465,1.53027 0.33984,0.79293 0.1709,0.3975 0.19823,0.36817 0.33985,0.79293 0.1709,0.3975 0.19824,0.36816 0.62207,1.61524 0.28321,0.82226 0.3125,0.79294 0.53808,1.64456 0.11329,0.42481 0.14256,0.39643 0.28224,0.794 0.4541,1.70019 0.19922,0.85059 0.22559,0.82129 0.39745,1.70113 0.36817,1.7002 0.28418,1.75687 0.2832,1.72949 0.22559,1.78514 0.19922,1.7568 0.1416,1.8145 0.1123,1.81348 0.0576,1.8418 0.0273,1.81442"
           id="path3730"
           inkscape:connector-curvature="0"
           style="fill:none;stroke:#231f20;stroke-width:3.00409007;stroke-linecap:square;stroke-linejoin:miter;stroke-miterlimit:10" />
        <path
           transform="matrix(1,0,0,-1,0,841.88967)"
           stroke-miterlimit="10"
           d="m 272.7954,638.76907 -0.96385,-0.93557 -0.87841,-0.9912 -0.87844,-0.9922 -0.76561,-1.0205 -0.79345,-1.01952 -0.7085,-1.07718 -1.27539,-2.1826 -0.59475,-1.1055 -0.53855,-1.1328 -0.51026,-1.1338 -0.4248,-1.1904 -0.42529,-1.1621 -0.34034,-1.21874 -0.31152,-1.21876 -0.25488,-1.2754 -0.34033,-1.78514 -0.19825,-1.87109 -0.1416,-1.89847 v -1.9551 l -0.0283,-0.9355 0.0283,-0.9639 0.1416,-1.8984 0.19825,-1.8428 0.1416,-0.90622 0.19873,-0.93558 0.25488,-1.21872 0.31152,-1.21878 0.34034,-1.1904 0.42529,-1.2188 0.4248,-1.1328 0.51026,-1.1621 0.53855,-1.1338 0.59475,-1.1338 0.59521,-1.0771 0.68018,-1.0772 0.7085,-1.0478 0.79345,-1.04883 0.76561,-0.99218 0.87844,-1.02051 0.87841,-0.99121 0.96385,-0.99219 1.04836,-0.99219 1.07664,-0.96389 1.10549,-0.90622 1.13379,-0.87891 1.1333,-0.79297 1.16211,-0.76562 1.19041,-0.70899 1.21828,-0.65139 1.21875,-0.5947 1.24707,-0.5391 1.27539,-0.48141 1.33201,-0.4541 1.30373,-0.36819 1.36035,-0.36814 1.36036,-0.2832 1.41699,-0.25586 1.33203,-0.1416 1.38867,-0.1416 1.41697,-0.085 1.47366,-0.0283 0.68017,0.0283 h 0.70897 l 1.41603,0.085 1.36133,0.1416 1.41699,0.1416 1.36035,0.25586 1.36036,0.2832 0.31152,0.11324 0.33887,0.085 0.68065,0.1699 0.3125,0.1133 0.33985,0.085 0.67969,0.16992 1.27539,0.4541 1.30371,0.48141 1.24706,0.5391 1.2461,0.5947 1.1914,0.65139 1.18947,0.70899 1.13379,0.76562 1.1621,0.79297 0.53809,0.45313 0.56641,0.42578 1.10547,0.90622 1.07812,0.96389 1.07615,0.99219 0.59475,0.67969 0.625,0.65233 1.19043,1.36036 0.11328,0.19824 0.1416,0.1699 0.2832,0.33987 0.53809,0.68063 1.04883,1.417 0.90625,1.47366 0.87793,1.47363 0.7666,1.53028 0.70801,1.53023 0.2832,0.8223 0.3125,0.7939 0.11328,0.4248 0.1416,0.3965 0.28321,0.79399 0.4248,1.64351 0.19922,0.8506 0.0283,0.22659 0.0557,0.19821 0.11329,0.3965 0.0576,0.4541 0.0273,0.22658 0.0567,0.19822 0.1416,0.8506 0.22754,1.7568 0.0557,0.90727 0.0576,0.87793 0.084,1.8144 -0.084,1.87017 -0.11328,1.78513 -0.22754,1.78616 -0.2832,1.70014 -0.39649,1.7002 -0.4248,1.6436 -0.53809,1.6445 -0.5957,1.5586 -0.70801,1.5869 -0.7666,1.502 -0.87793,1.5019 -0.90625,1.44536 -1.04883,1.44531 -1.07617,1.36033 -1.19043,1.36038 -1.21975,1.27539 -1.1328,1.10543 -1.10644,0.9922 -0.59472,0.50979 -0.56738,0.45311 -1.16116,0.8789 -1.21775,0.8789 -1.21975,0.76468 -1.27537,0.70898 -1.24707,0.65134 -0.67969,0.3408 -0.65137,0.2832 -1.3047,0.5381 -1.36033,0.48148 -1.36037,0.42578 -1.416,0.36814 -1.41797,0.3115 -1.47265,0.2559 -1.44532,0.1982 -1.13476,0.1416 -1.10547,0.0567 -2.20947,0.0566 -2.2959,-0.0566 -2.21046,-0.1983 -1.50194,-0.1982 -1.44532,-0.2559 -1.44531,-0.3115 -1.38867,-0.36814 -1.38867,-0.42578 -1.36035,-0.48148 -1.33204,-0.5381 -1.2754,-0.624 -1.3037,-0.65134 -1.2466,-0.70898 -1.24705,-0.76468 -1.19045,-0.8789 -1.19041,-0.8789 -1.16162,-0.9629 -1.13379,-0.9922 -1.07668,-1.10543"
           id="path3732"
           inkscape:connector-curvature="0"
           style="fill:none;stroke:#231f20;stroke-width:3.00409007;stroke-linecap:square;stroke-linejoin:miter;stroke-miterlimit:10" />
        <path
           transform="matrix(1,0,0,-1,0,841.88967)"
           stroke-miterlimit="10"
           d="m 297.98976,667.84719 -2.80567,-0.0567 -2.7207,-0.1699 -2.69239,-0.3125 -2.60742,-0.4531 -2.60742,-0.5381 -2.52197,-0.6807 -2.46582,-0.79291 -2.40869,-0.96389 -2.40918,-1.0205 -2.29541,-1.19042 -2.29541,-1.30371 -2.18213,-1.44531 -2.18262,-1.53027 -2.09717,-1.67189 -2.06886,-1.81444 -1.9834,-1.95508 -1.95555,-1.98438 -1.81397,-2.0684 -1.7002,-2.09761 -1.53027,-2.18169 -1.44581,-2.1826 -1.30321,-2.2959 -1.19043,-2.2949 -1.02051,-2.4092 -0.96338,-2.4092 -0.79346,-2.4658 -0.68017,-2.5215 -0.53858,-2.6074 -0.45361,-2.6074 -0.31152,-2.6924 -0.16993,-2.749 -0.0283,-2.8057 -0.0283,-1.36032 0.0566,-1.38868 0.0566,-1.36034 0.11328,-1.38867 0.31152,-2.66409 0.19873,-1.3037 0.25488,-1.33202 0.22657,-1.27539 0.31201,-1.30371 0.31152,-1.24708 0.36865,-1.2754 0.36817,-1.21873 0.42529,-1.24707 0.96338,-2.4375 0.48193,-1.16211 0.53858,-1.19043 1.19043,-2.32326 0.62353,-1.1055 0.67968,-1.13374 0.68019,-1.10547 0.76562,-1.13379 1.53027,-2.15332 0.82178,-1.04888 0.87842,-1.0771 0.87842,-1.0205 0.93555,-1.0479 1.95555,-2.041 0.9634,-0.96384 1.02,-0.93457 2.06886,-1.81449 2.09717,-1.64352 2.18262,-1.58691 2.18213,-1.41699 2.29541,-1.30371 1.13379,-0.59571 1.16162,-0.5664 2.40918,-1.07716 2.40869,-0.90624 1.21873,-0.42578 1.24709,-0.39649 2.52197,-0.68069 2.60742,-0.5664 1.30372,-0.22654 1.3037,-0.19826 2.69239,-0.3408 2.7207,-0.16992 1.38867,-0.0567 1.417,-0.0283 1.35984,0.0283 1.38869,0.0567 1.36035,0.0849 0.68066,0.0567 0.33985,0.0283 h 0.36914 l 2.66406,0.3408 1.30371,0.19826 1.33104,0.22654 1.2754,0.2832 1.30274,0.2832 1.24805,0.3408 1.27539,0.33989 1.21778,0.39649 1.24707,0.42578 2.4375,0.90624 0.5664,0.2832 0.28321,0.1416 0.3125,0.11427 1.19042,0.53809 1.13379,0.5664 1.18945,0.59571 2.26856,1.30371 0.25391,0.19822 0.2832,0.1699 0.56738,0.33989 1.13282,0.70898 2.15429,1.58691 0.50977,0.42481 0.54004,0.39741 1.07519,0.8213 1.02051,0.90727 1.04981,0.90722 1.01952,0.93457 1.01954,0.96384 0.96484,1.0205 0.93457,1.0205 0.90723,1.0479 0.90625,1.0205 0.82324,1.0771 0.39649,0.5381 0.4248,0.51078 1.58691,2.15332 0.70899,1.13379 0.33887,0.56738 0.16992,0.28321 0.19922,0.25488 0.65233,1.13374 0.31056,0.5664 0.34082,0.5391 0.5957,1.18947 0.56542,1.13379 0.54005,1.19043 0.1123,0.31151 0.14161,0.28419 0.2832,0.56641 0.9082,2.4375 0.42481,1.24707 0.39648,1.21873 0.33984,1.2754 0.33985,1.24708 0.2832,1.30371 0.2832,1.27539 0.22656,1.33202 0.19825,1.3037 0.34082,2.66409 v 0.36811 l 0.0293,0.33989 0.0566,0.68067 0.085,1.36034 0.0557,1.38868 0.0283,1.36032 -0.0283,1.417 -0.0557,1.3887 -0.1709,2.749 -0.34082,2.6924 -0.19825,1.3037 -0.22656,1.3037 -0.5664,2.6074 -0.67969,2.5215 -0.39648,1.2471 -0.42481,1.2187 -0.9082,2.4092 -1.07716,2.4092 -0.56542,1.1621 -0.5957,1.1328 -1.30371,2.2959 -1.417,2.1826 -1.58691,2.18169 -1.64453,2.09761 -1.81348,2.0684 -0.93457,1.0205 -0.96484,0.96388 -2.03906,1.95508 -1.04981,0.93554 -1.02051,0.8789 -1.07519,0.8779 -1.04981,0.79399 -2.15429,1.53027 -1.13282,0.76562 -1.10449,0.67969 -2.26856,1.30371 -2.32324,1.19042 -1.19042,0.5381 -1.16211,0.4824 -2.4375,0.96389 -1.24707,0.4248 -1.21778,0.36811 -1.27539,0.3682 -1.24805,0.3125 -1.30274,0.3115 -1.2754,0.2266 -1.33104,0.25489 -1.30371,0.19821 -2.66406,0.3125 -1.38965,0.1133 -1.36035,0.0566 -1.38869,0.0567 h -1.35984"
           id="path3734"
           inkscape:connector-curvature="0"
           style="fill:none;stroke:#231f20;stroke-width:3.00409007;stroke-linecap:square;stroke-linejoin:miter;stroke-miterlimit:10" />
        <path
           transform="matrix(1,0,0,-1,0,841.88967)"
           stroke-miterlimit="10"
           d="m 271.7749,699.84378 -3.9961,-1.2754 -1.98387,-0.70849 -1.92676,-0.76519 -3.82617,-1.67231 -1.89892,-0.87891 -1.8418,-0.9917 -1.87061,-0.9917 -1.81397,-1.04888 -1.81347,-1.10541 -1.75733,-1.16211 -1.78516,-1.16118 -1.729,-1.2754 -1.72851,-1.27631 -1.67237,-1.38869 -1.9834,-1.61522 -1.92724,-1.72851 -1.89893,-1.78517 -1.8706,-1.87011 -2.23877,-2.23929 -2.12549,-2.3242 -2.04053,-2.3516 -1.89892,-2.4375 -1.8418,-2.40913 -1.72901,-2.49417 -1.64355,-2.52243 -1.50195,-2.60747 -1.47364,-2.5791 -1.33203,-2.66401 -1.24707,-2.69239 -1.13379,-2.74902 -1.07666,-2.74908 -0.93554,-2.83393 -0.8501,-2.8623 -0.73682,-2.91897 -0.62353,-2.6074 -0.50977,-2.6924 -0.45362,-2.6924 -0.34032,-2.77731 -0.28321,-2.74902 -0.19824,-2.83399 -0.11328,-2.83398 -0.0283,-2.919 0.0283,-2.86323 0.11328,-2.83398 0.19824,-2.80569 0.11328,-1.3887 0.16993,-1.41694 0.14209,-1.36036 0.19823,-1.3887 0.45362,-2.7207 0.22656,-1.332 0.28321,-1.3604 0.62353,-2.66401 0.62354,-2.4375 0.70849,-2.43653 0.76514,-2.40918 0.8501,-2.38088 0.90722,-2.3242 0.9917,-2.32324 0.51026,-1.13379 0.56689,-1.1621 1.16162,-2.2959 1.19043,-2.21097 1.27539,-2.20993 0.65186,-1.07717 0.70849,-1.1055 1.44532,-2.1533 1.47363,-2.09763 1.55859,-2.09767 0.79346,-1.01951 0.85059,-1.04883 1.72851,-2.06936 2.06885,-2.35154 1.07715,-1.16216 1.1333,-1.1904 0.76514,-0.68064 2.69238,-2.60746 1.38867,-1.2754 1.41699,-1.2461 1.38867,-1.1904 1.44532,-1.1621 1.44531,-1.1338 1.47412,-1.1055 2.83399,-1.9834 1.44531,-0.96381 1.47363,-0.93559 1.47363,-0.8779 1.50196,-0.8506 3.03223,-1.64353 3.0327,-1.47367 1.5586,-0.709 1.5869,-0.67963 1.58743,-0.62407 1.61523,-0.5947 3.25928,-1.1338 1.61523,-0.4824 1.64356,-0.45312 3.37256,-0.85058 1.70068,-0.3682 1.70019,-0.33981 3.48584,-0.62403 1.729,-0.22656 1.75684,-0.19824 3.5708,-0.33986 1.78565,-0.1133 1.81348,-0.0849 1.84228,-0.0567 1.87061,-0.0283 1.81298,0.0283 1.8418,0.0567 0.87891,0.0566 0.9082,0.0283 1.8125,0.1133 1.75781,0.1699 1.78514,0.16996 1.75686,0.19824 1.78613,0.22656 1.69921,0.3125 0.85157,0.16993 0.4248,0.0849 0.45411,0.0567 1.70019,0.33981 0.84961,0.19827 0.87792,0.16993 3.34376,0.85058 1.64551,0.45312 0.39648,0.14258 0.42481,0.11329 0.84961,0.22653 1.58789,0.5664 1.61523,0.5674 1.58594,0.5947 1.61523,0.62407 1.53124,0.67963 1.5879,0.709 1.53028,0.73637 1.55859,0.7373 0.73533,0.42481 0.76565,0.39648 1.53125,0.82224 1.47265,0.8506 0.73731,0.4531 0.36814,0.2266 0.3965,0.1982 0.33985,0.2549 0.37012,0.22756 0.73533,0.45313 1.47365,0.96381 2.8916,1.9834 1.41602,1.1055 1.44629,1.1338 1.41699,1.1621 1.44531,1.1904 1.3877,1.2461 1.41699,1.2754 1.36133,1.3037 1.38867,1.30376 1.8418,1.92773 1.81445,1.92671 1.72754,1.9844 1.67383,1.9834 1.55859,2.041 1.5293,2.04008 1.44531,2.09762 1.41699,2.0967 1.58789,2.66408 0.73633,1.36032 0.36817,0.68069 0.39745,0.65137 0.68067,1.38864 0.70801,1.36038 0.1416,0.36912 0.16895,0.33987 0.33984,0.67963 0.65233,1.3604 1.19044,2.83497 0.25489,0.73633 0.2832,0.70898 0.54004,1.41699 0.99121,2.89063 0.4541,1.4736 0.45215,1.4453 0.76562,3.0039 0.34082,1.5303 0.33887,1.50197 0.56641,3.06153 0.22851,1.55859 0.25391,1.53028 0.33983,3.17382 0.0566,0.82227 0.0859,0.79394 0.14061,1.5869 0.16994,3.23049 0.0283,1.64351 v 0.8223 l 0.0293,0.7939 -0.0576,3.31548 -0.16994,3.23042 -0.2832,3.2315 -0.33983,3.1455 -0.48242,3.14649 -0.56641,3.06051 -0.67969,3.03226 -0.76562,2.94724 -0.90625,2.9756 -0.99121,2.8906 -1.07813,2.8633 -1.19044,2.77736 -1.30272,2.80564 -1.38868,2.6924 -1.50195,2.69239 -1.58789,2.60741 -1.41699,2.1533 -1.44531,2.06937 -1.5293,2.06833 -1.55859,2.0127 -1.67383,2.0117 -1.72754,1.9561 -1.81445,1.95508 -1.8418,1.89941 -1.92775,1.87011 -1.92674,1.78517 -1.95508,1.72851 -1.92773,1.61522 -1.61426,1.2754 -1.58692,1.2197 -1.61621,1.19046 -1.61621,1.10444 -1.6709,1.1055 -1.67187,1.0195 -1.70118,1.02056 -1.67284,0.93554 -1.75686,0.9355 -1.72752,0.84967 -1.75781,0.85053 -1.75781,0.76519 -1.8125,0.76561 -1.81348,0.68019 -1.8418,0.68017 -1.81543,0.59473"
           id="path3736"
           inkscape:connector-curvature="0"
           style="fill:none;stroke:#231f20;stroke-width:3.00409007;stroke-linecap:square;stroke-linejoin:miter;stroke-miterlimit:10" />
        <path
           transform="matrix(1,0,0,-1,0,841.88967)"
           stroke-miterlimit="10"
           d="m 286.54005,625.05227 -0.62355,-0.5664 -0.53807,-0.62407 -0.96387,-1.2754 -0.82178,-1.332 -0.36865,-0.6797 -0.2832,-0.7373 -0.53858,-1.4453 -0.36816,-1.5586 -0.1416,-0.7656 -0.0854,-0.8213 -0.0283,-1.6719 -0.0283,-0.79391 0.0566,-0.82229 0.0854,-0.793 0.1416,-0.7939 0.1416,-0.73632 0.22656,-0.76568 0.22705,-0.7363 0.31153,-0.7656 0.2832,-0.6807 0.36865,-0.708 0.36866,-0.65231 0.45312,-0.67969 0.45361,-0.62403 0.51026,-0.65137 0.53807,-0.62304 0.62355,-0.62406 0.56689,-0.5664 0.62354,-0.53903 1.27539,-0.96289 0.65183,-0.42578 0.6802,-0.3965 0.68018,-0.33983 0.73681,-0.34087 1.44531,-0.50972 0.7368,-0.19828 0.79348,-0.1699 0.76512,-0.1133 0.82179,-0.1133 0.82178,-0.0566 0.85059,-0.0283 0.79344,0.0283 0.82228,0.0566 0.79297,0.1133 0.79295,0.1133 0.7383,0.1699 0.36816,0.1133 0.39551,0.085 0.73828,0.25489 0.16992,0.0849 0.19727,0.0567 0.39646,0.11323 0.68166,0.34087 0.70801,0.33983 0.65137,0.3965 0.67969,0.42578 0.62402,0.48142 0.0576,0.085 0.084,0.0566 0.1709,0.1133 0.33885,0.22657 0.62404,0.53903 0.65136,0.5664 0.5664,0.62406 0.54005,0.62304 0.22559,0.3398 0.11326,0.16997 0.0567,0.0849 0.0859,0.0567 0.48144,0.62403 0.42481,0.67969 0.39648,0.65231 0.34082,0.708 0.34082,0.6807 0.11328,0.39649 0.0566,0.19821 0.085,0.1709 0.2539,0.7363 0.0849,0.3965 0.11428,0.36918 0.16895,0.73632 0.11327,0.7939 0.11426,0.793 0.0557,0.82229 0.0293,0.79391 -0.0293,0.8496 -0.0557,0.8223 -0.11426,0.8213 -0.11327,0.7656 -0.16895,0.79397 -0.19922,0.76463 -0.50879,1.4453 -0.34082,0.7373 -0.34082,0.6797 -0.39648,0.68068 -0.42481,0.65132 -0.96289,1.2754 -0.54005,0.62407 -0.5664,0.5664 -0.65136,0.5957 -0.62404,0.53809 -0.65135,0.50974 -0.62402,0.4541 -0.67969,0.4531 -0.65137,0.3682 -0.70801,0.36916 -0.68166,0.2832 -0.76365,0.31152 -0.73828,0.22652 -0.76367,0.2266 -0.7383,0.1416 -0.79295,0.14259 -0.79297,0.0849 -0.82228,0.0567 h -0.79344 l -1.67237,-0.0567 -0.82179,-0.0849 -0.76512,-0.14259 -0.79348,-0.1416 -0.7368,-0.2266 -1.44531,-0.53804 -0.73681,-0.2832 -0.68018,-0.36916 -1.33203,-0.8213 -1.27539,-0.96384 -0.62354,-0.53809 -0.56689,-0.5957"
           id="path3738"
           inkscape:connector-curvature="0"
           style="fill:none;stroke:#231f20;stroke-width:4.9879899;stroke-linecap:square;stroke-linejoin:miter;stroke-miterlimit:10" />
        <path
           transform="matrix(1,0,0,-1,0,841.88967)"
           d="m 334.46388,742.43997 h -72.91992 v -72.9209 h 72.91992 v 72.9209 M 279.28517,724.6987 h 37.37988 v -37.3818 h -37.37988 z"
           id="path3740"
           inkscape:connector-curvature="0"
           style="fill:#231f20;fill-rule:evenodd" />
        <path
           transform="matrix(1,0,0,-1,0,841.88967)"
           stroke-miterlimit="10"
           d="m 261.54396,742.43997 v -72.9209 h 72.91992 v 72.9209 h -72.91992"
           id="path3742"
           inkscape:connector-curvature="0"
           style="fill:none;stroke:#231f20;stroke-width:2.0121901;stroke-linecap:square;stroke-linejoin:miter;stroke-miterlimit:10" />
        <path
           transform="matrix(1,0,0,-1,0,841.88967)"
           stroke-miterlimit="10"
           d="m 279.28517,724.6987 v -37.3818 h 37.37988 v 37.3818 h -37.37988"
           id="path3744"
           inkscape:connector-curvature="0"
           style="fill:none;stroke:#231f20;stroke-width:2.0121901;stroke-linecap:square;stroke-linejoin:miter;stroke-miterlimit:10" />
        <path
           transform="matrix(1,0,0,-1,0,841.88967)"
           stroke-miterlimit="10"
           d="m 217.09278,132.69922 -2.292,-0.0557 -2.20703,-0.19922 -1.49951,-0.16895 -1.44287,-0.25488 -1.44336,-0.31055 -1.38623,-0.36914 -1.38672,-0.42383 -1.35791,-0.48144 -1.33008,-0.53711 -1.27343,-0.62207 -1.30127,-0.65137 -1.24512,-0.70703 -1.24512,-0.76465 -1.18799,-0.87598 -1.18847,-0.87793 -1.16016,-0.99023 -1.13184,-0.99023 -1.07519,-1.10352 -0.96191,-0.93359 -0.87745,-0.99121 -0.87695,-0.98926 -0.76416,-1.01953 -0.76367,-1.01758 -0.70752,-1.0752 -1.27344,-2.17871 -0.59424,-1.10351 -0.53759,-1.13282 -0.50928,-1.13086 -0.42432,-1.18945 -0.42431,-1.15918 -0.33985,-1.2168 -0.31103,-1.21679 -0.2544,-1.24512 -0.33984,-1.7832 -0.22608,-1.86719 -0.1416,-1.89551 v -1.95215 l -0.0283,-0.93457 0.0283,-0.96093 0.1416,-1.89551 0.0845,-0.90625 0.1416,-0.9336 0.1416,-0.90527 0.19824,-0.93359 0.2544,-1.2168 0.31103,-1.21582 0.33985,-1.18848 0.42431,-1.21679 0.42432,-1.13282 0.50928,-1.15918 0.53759,-1.13183 0.59424,-1.13281 0.59424,-1.0752 0.6792,-1.07519 0.70752,-1.0459 0.76367,-1.04688 0.76416,-0.99121 0.87695,-1.01758 0.87745,-0.99121 0.96191,-0.99121 1.04687,-0.99023 1.0752,-0.96094 1.10352,-0.90625 1.13183,-0.87598 1.13184,-0.79199 1.16015,-0.76562 1.18848,-0.70606 1.21631,-0.65137 1.2168,-0.59375 1.24511,-0.53711 1.27295,-0.48242 1.33008,-0.45215 1.30176,-0.36816 1.35791,-0.36816 1.3584,-0.28321 1.41455,-0.2539 1.3584,-0.14161 1.38623,-0.1416 1.41455,-0.08398 1.44336,-0.02832 0.6792,0.02832 h 0.70751 l 1.41407,0.08398 0.67968,0.08594 0.70704,0.05566 1.41504,0.14161 1.35839,0.2539 1.35743,0.28321 0.31152,0.11328 0.33984,0.08593 0.67871,0.16895 0.31153,0.11426 0.33886,0.08496 0.67969,0.16894 1.27344,0.45215 0.62207,0.25488 0.65137,0.22754 1.24413,0.53711 1.24512,0.59375 1.18848,0.65137 1.18848,0.70606 1.13183,0.76562 1.16016,0.79199 0.53711,0.45117 0.56641,0.42481 1.10351,0.90625 1.0752,0.96094 1.07519,0.99023 0.59375,0.67969 0.62305,0.65039 1.18848,1.3584 0.11328,0.19922 0.1416,0.16992 0.28222,0.33887 0.53809,0.67871 1.04688,1.41406 0.90526,1.47265 0.87696,1.47168 0.76465,1.52637 0.70703,1.52832 0.2832,0.82031 0.31055,0.792 0.11328,0.4248 0.1416,0.39649 0.28321,0.79199 0.42382,1.64062 0.19825,0.84961 0.0283,0.22559 0.0566,0.19922 0.11329,0.39648 0.0566,0.45117 0.0283,0.22754 0.0566,0.19727 0.1416,0.84863 0.22657,1.75488 0.0566,0.90625 0.0557,0.87696 0.085,1.81054 -0.085,1.83887 -0.1123,1.7832 -0.22657,1.78223 -0.2832,1.69727 -0.39649,1.69824 -0.42382,1.64062 -0.53809,1.6416 -0.59375,1.55665 -0.70703,1.58398 -0.76465,1.5 -0.87696,1.5 -0.90526,1.44238 -1.04688,1.44239 -1.07519,1.35937 -1.18848,1.35742 -1.2168,1.27344 -1.13183,1.10352 -1.10352,0.99023 -1.16016,0.99023 -1.16015,0.87793 -1.2168,0.87598 -1.2168,0.76465 -1.27246,0.70703 -1.24511,0.65137 -0.67969,0.33887 -0.65039,0.2832 -1.30176,0.53711 -1.3584,0.48144 -1.35742,0.42383 -1.41504,0.36914 -1.41504,0.31055 -1.4707,0.25488 -0.73633,0.11231 -0.70703,0.0566 -1.13184,0.1416 -1.10352,0.0576 -2.20702,0.0557"
           id="path3746"
           inkscape:connector-curvature="0"
           style="fill:none;stroke:#231f20;stroke-width:2.9993;stroke-linecap:square;stroke-linejoin:miter;stroke-miterlimit:10" />
        <path
           transform="matrix(1,0,0,-1,0,841.88967)"
           stroke-miterlimit="10"
           d="m 217.09278,113.40234 -1.66944,-0.0566 -1.55615,-0.22656 -0.79249,-0.1416 -0.73534,-0.22559 -1.44336,-0.53808 -0.73535,-0.28223 -0.6792,-0.36816 -1.33008,-0.82032 -1.27295,-0.96191 -1.2168,-1.13281 -0.62255,-0.56543 -0.5376,-0.62207 -0.96192,-1.27442 -0.8208,-1.3291 -0.36767,-0.67969 -0.28321,-0.73535 -0.53759,-1.44336 -0.33936,-1.55566 -0.22656,-1.61231 -0.0283,-1.66992 -0.0278,-0.79199 0.0562,-0.82031 0.085,-0.79199 0.1416,-0.79297 0.1416,-0.73633 0.19776,-0.7627 0.22656,-0.7373 0.31103,-0.7627 0.28321,-0.67871 0.36767,-0.708 0.36817,-0.6504 0.45263,-0.67968 0.45264,-0.62207 0.50928,-0.65137 0.5376,-0.62207 0.62255,-0.62207 1.2168,-1.0752 1.27295,-0.96191 0.65088,-0.42481 0.6792,-0.3955 0.6792,-0.34082 0.73535,-0.33887 1.44336,-0.50879 0.73534,-0.19824 0.79249,-0.1709 1.55615,-0.22559 0.82031,-0.05761 0.84913,-0.02832 0.79199,0.02832 0.82031,0.05761 0.79297,0.11329 0.79199,0.1123 0.73535,0.1709 0.36817,0.1123 0.39648,0.08594 0.73535,0.25391 0.16993,0.08496 0.19824,0.05566 0.39551,0.11426 0.67968,0.33887 0.70703,0.34082 0.67871,0.3955 0.67969,0.42481 0.62207,0.48047 0.0566,0.08398 0.085,0.05762 0.16993,0.1123 0.33984,0.22754 0.62207,0.53614 0.31152,0.2832 0.33887,0.25586 0.53809,0.62207 0.53711,0.62207 0.22656,0.34082 0.11328,0.16797 0.0566,0.08594 0.085,0.05664 0.48145,0.62207 0.42382,0.67968 0.39649,0.6504 0.33887,0.708 0.33984,0.67871 0.11328,0.39649 0.0566,0.19824 0.085,0.16797 0.25489,0.7373 0.085,0.39551 0.11328,0.36719 0.16894,0.73633 0.11328,0.79297 0.11328,0.79199 0.0567,0.82031 0.0283,0.79199 -0.0283,0.84864 -0.0567,0.82128 -0.22656,1.61231 -0.16894,0.79297 -0.19824,0.76269 -0.50977,1.44336 -0.33984,0.73535 -0.33887,0.67969 -0.39649,0.67871 -0.42382,0.65039 -0.96289,1.27442 -0.53711,0.62207 -0.53809,0.56543 -0.65039,0.59472 -0.62207,0.53809 -0.65137,0.50879 -0.62207,0.45312 -0.67969,0.45215 -0.67871,0.36817 -0.70703,0.36816 -0.67968,0.28223 -0.76368,0.31152 -0.73535,0.22656 -0.76465,0.22559 -0.73535,0.1416 -0.79199,0.1416 -0.79297,0.085 -0.82031,0.0566 h -0.79199"
           id="path3748"
           inkscape:connector-curvature="0"
           style="fill:none;stroke:#231f20;stroke-width:4.97988987;stroke-linecap:square;stroke-linejoin:miter;stroke-miterlimit:10" />
        <path
           transform="matrix(1,0,0,-1,0,841.88967)"
           stroke-miterlimit="10"
           d="m 379.66798,132.69922 -2.29199,-0.0557 -2.20703,-0.19922 -1.5,-0.16895 -1.44239,-0.25488 -1.44337,-0.31055 -1.38573,-0.36914 -1.38672,-0.42383 -1.3584,-0.48144 -1.33007,-0.53711 -1.27344,-0.62207 -1.30078,-0.65137 -1.2461,-0.70703 -1.24511,-0.76465 -1.1875,-0.87598 -1.18848,-0.87793 -1.16017,-0.99023 -1.13182,-0.99023 -1.0752,-1.10352 -0.96191,-0.93359 -0.87793,-0.99121 -0.87598,-0.98926 -0.76466,-1.01953 -0.76366,-1.01758 -0.70704,-1.0752 -1.27343,-2.17871 -0.59472,-1.10351 -0.53809,-1.13282 -0.50879,-1.13086 -0.4248,-1.18945 -0.42383,-1.15918 -0.33985,-1.2168 -0.31152,-1.21679 -0.25391,-1.24512 -0.33986,-1.7832 -0.22654,-1.86719 -0.1416,-1.89551 v -1.95215 l -0.0274,-0.93457 0.0274,-0.96093 0.1416,-1.89551 0.0849,-0.90625 0.1416,-0.9336 0.1416,-0.90527 0.19826,-0.93359 0.25391,-1.2168 0.31152,-1.21582 0.33985,-1.18848 0.42383,-1.21679 0.4248,-1.13282 0.50879,-1.15918 0.53809,-1.13183 0.59472,-1.13281 0.59373,-1.0752 0.6797,-1.07519 0.70704,-1.0459 0.76366,-1.04688 0.76466,-0.99121 0.87598,-1.01758 0.87793,-0.99121 0.96191,-0.99121 1.04688,-0.99023 1.07519,-0.96094 1.10352,-0.90625 1.13183,-0.87598 1.13184,-0.79199 1.16016,-0.76562 1.18847,-0.70606 1.2168,-0.65137 1.2168,-0.59375 1.24413,-0.53711 1.27344,-0.48242 1.33006,-0.45215 1.30178,-0.36816 1.3584,-0.36816 1.3584,-0.28321 1.41406,-0.2539 1.3584,-0.14161 1.38672,-0.1416 1.41404,-0.08398 1.44338,-0.02832 0.67969,0.02832 h 0.70703 l 1.41406,0.08398 0.67969,0.08594 0.70703,0.05566 1.41502,0.14161 1.3584,0.2539 1.35744,0.28321 0.31152,0.11328 0.33984,0.08593 0.6787,0.16895 0.31154,0.11426 0.33886,0.08496 0.67969,0.16894 1.27344,0.45215 0.62207,0.25488 0.65137,0.22754 1.24413,0.53711 1.24513,0.59375 1.18847,0.65137 1.18848,0.70606 1.13182,0.76562 1.16017,0.79199 0.53711,0.45117 0.56641,0.42481 1.10351,0.90625 1.0752,0.96094 1.07519,0.99023 0.59375,0.67969 0.62305,0.65039 1.18848,1.3584 0.11328,0.19922 0.1416,0.16992 0.28223,0.33887 0.53808,0.67871 1.04688,1.41406 0.90526,1.47265 0.87696,1.47168 0.76464,1.52637 0.70704,1.52832 0.28321,0.82031 0.31054,0.792 0.11329,0.4248 0.1416,0.39649 0.2832,0.79199 0.42382,1.64062 0.19825,0.84961 0.0283,0.22559 0.0566,0.19922 0.11329,0.39648 0.0566,0.45117 0.0283,0.22754 0.0566,0.19727 0.14161,0.84863 0.22656,1.75488 0.0566,0.90625 0.0557,0.87696 0.0849,1.81054 -0.0849,1.83887 -0.1123,1.7832 -0.22656,1.78223 -0.28321,1.69727 -0.39649,1.69824 -0.42382,1.64062 -0.53809,1.6416 -0.59375,1.55665 -0.70704,1.58398 -0.76464,1.5 -0.87696,1.5 -0.90526,1.44238 -1.04688,1.44239 -1.07519,1.35937 -1.18848,1.35742 -1.2168,1.27344 -1.13183,1.10352 -1.10352,0.99023 -1.16015,0.99023 -1.16016,0.87793 -1.2168,0.87598 -1.21679,0.76465 -1.27246,0.70703 -1.24512,0.65137 -0.67969,0.33887 -0.65039,0.2832 -1.30178,0.53711 -1.3584,0.48144 -1.3574,0.42383 -1.41504,0.36914 -1.41506,0.31055 -1.4707,0.25488 -0.73631,0.11231 -0.70703,0.0566 -1.13183,0.1416 -1.10353,0.0576 -2.20702,0.0557"
           id="path3750"
           inkscape:connector-curvature="0"
           style="fill:none;stroke:#231f20;stroke-width:2.9993;stroke-linecap:square;stroke-linejoin:miter;stroke-miterlimit:10" />
        <path
           transform="matrix(1,0,0,-1,0,841.88967)"
           stroke-miterlimit="10"
           d="m 379.66798,113.40234 -1.66992,-0.0566 -1.55567,-0.22656 -0.79199,-0.1416 -0.73535,-0.22559 -1.44435,-0.53808 -0.73534,-0.28223 -0.67871,-0.36816 -1.33008,-0.82032 -1.27343,-0.96191 -1.2168,-1.13281 -0.62207,-0.56543 -0.53711,-0.62207 -0.96289,-1.27442 -0.82031,-1.3291 -0.36719,-0.67969 -0.28321,-0.73535 -0.53808,-1.44336 -0.33984,-1.55566 -0.22559,-1.61231 -0.0293,-1.66992 -0.0273,-0.79199 0.0566,-0.82031 0.0849,-0.79199 0.14064,-0.79297 0.14256,-0.73633 0.19728,-0.7627 0.22656,-0.7373 0.31152,-0.7627 0.28321,-0.67871 0.36719,-0.708 0.36814,-0.6504 0.45217,-0.67968 0.45312,-0.62207 0.50977,-0.65137 0.53711,-0.62207 0.62207,-0.62207 1.2168,-1.0752 1.27343,-0.96191 0.65039,-0.42481 0.67969,-0.3955 0.67871,-0.34082 0.73534,-0.33887 1.44435,-0.50879 0.73535,-0.19824 0.79199,-0.1709 1.55567,-0.22559 0.82031,-0.05761 0.84961,-0.02832 0.79199,0.02832 0.82031,0.05761 0.79297,0.11329 0.79199,0.1123 0.73536,0.1709 0.36816,0.1123 0.39648,0.08594 0.73536,0.25391 0.1699,0.08496 0.19826,0.05566 0.39551,0.11426 0.67969,0.33887 0.70703,0.34082 0.67871,0.3955 0.67969,0.42481 0.62207,0.48047 0.0566,0.08398 0.085,0.05762 0.16992,0.1123 0.33982,0.22754 0.62209,0.53614 0.31151,0.2832 0.33888,0.25586 0.53809,0.62207 0.53711,0.62207 0.22656,0.34082 0.11326,0.16797 0.0567,0.08594 0.0849,0.05664 0.48147,0.62207 0.42383,0.67968 0.39648,0.6504 0.33887,0.708 0.33984,0.67871 0.11328,0.39649 0.0566,0.19824 0.085,0.16797 0.25488,0.7373 0.0849,0.39551 0.1133,0.36719 0.16895,0.73633 0.11328,0.79297 0.11327,0.79199 0.0566,0.82031 0.0283,0.79199 -0.0283,0.84864 -0.0566,0.82128 -0.22655,1.61231 -0.16895,0.79297 -0.19824,0.76269 -0.50977,1.44336 -0.33984,0.73535 -0.33887,0.67969 -0.39648,0.67871 -0.42383,0.65039 -0.96289,1.27442 -0.53711,0.62207 -0.53809,0.56543 -0.65039,0.59472 -0.62209,0.53809 -0.65134,0.50879 -0.62207,0.45312 -0.67969,0.45215 -0.67871,0.36817 -0.70703,0.36816 -0.67969,0.28223 -0.76367,0.31152 -0.73536,0.22656 -0.76464,0.22559 -0.73536,0.1416 -0.79199,0.1416 -0.79297,0.085 -0.82031,0.0566 h -0.79199"
           id="path3752"
           inkscape:connector-curvature="0"
           style="fill:none;stroke:#231f20;stroke-width:4.97988987;stroke-linecap:square;stroke-linejoin:miter;stroke-miterlimit:10" />
        <path
           transform="matrix(1,0,0,-1,0,841.88967)"
           stroke-miterlimit="10"
           d="M 427.48829,440.62843 H 168.07666 V 786.1279 h 259.41163 z"
           id="path3754"
           inkscape:connector-curvature="0"
           style="fill:none;stroke:#231f20;stroke-width:3.01908994;stroke-linecap:square;stroke-linejoin:miter;stroke-miterlimit:10" />
        <g
           id="Layer-2"
           data-name="PointText">
          <g
             id="Layer-3"
             data-name="Pgf">
            <g
               id="Layer-4"
               data-name="PgfFormat" />
            <g
               id="g3757"
               data-name="CharFormat" />
            <g
               id="g3759"
               data-name="TabFormat" />
            <text
               xml:space="preserve"
               transform="translate(0,841.88967)"
               font-size="48"
               font-weight="bold"
               id="text3763"
               style="font-weight:bold;font-size:48px;font-family:Arial;fill:#231f20"><tspan
                 y="-354.28223"
                 x="177.91357"
                 id="tspan3761">S</tspan></text>
          </g>
        </g>
        <g
           id="g3773"
           data-name="PointText">
          <g
             id="g3771"
             data-name="Pgf">
            <text
               xml:space="preserve"
               transform="translate(0,841.88967)"
               font-size="48"
               font-weight="bold"
               id="text3769"
               style="font-weight:bold;font-size:48px;font-family:Arial;fill:#231f20"><tspan
                 y="-354.28223"
                 x="387.67676"
                 id="tspan3767">S</tspan></text>
          </g>
        </g>
        <path
           transform="matrix(1,0,0,-1,0,841.88967)"
           stroke-miterlimit="10"
           d="M 427.48829,53.62793 H 168.07666 v 345.50001 h 259.41163 z"
           id="path3785"
           inkscape:connector-curvature="0"
           style="fill:none;stroke:#231f20;stroke-width:3.01908994;stroke-linecap:square;stroke-linejoin:miter;stroke-miterlimit:10" />
        <path
           stroke-miterlimit="4"
           d="M 88.816383,422.00978 H 513.48288"
           id="path3787"
           inkscape:connector-curvature="0"
           style="fill:none;stroke:#000000;stroke-width:2.12409997;stroke-linecap:butt;stroke-linejoin:miter;stroke-miterlimit:4" />
      </g>
    </g>
  </g>
</svg>
